<svg aria-roledescription="er" role="graphics-document document" viewBox="0 -61 756.962890625 662" style="max-width: 756.963px; background-color: white;" xmlns:xlink="http://www.w3.org/1999/xlink" xmlns="http://www.w3.org/2000/svg" width="100%" id="my-svg"><style>#my-svg{font-family:"trebuchet ms",verdana,arial,sans-serif;font-size:16px;fill:#333;}#my-svg .error-icon{fill:#552222;}#my-svg .error-text{fill:#552222;stroke:#552222;}#my-svg .edge-thickness-normal{stroke-width:2px;}#my-svg .edge-thickness-thick{stroke-width:3.5px;}#my-svg .edge-pattern-solid{stroke-dasharray:0;}#my-svg .edge-pattern-dashed{stroke-dasharray:3;}#my-svg .edge-pattern-dotted{stroke-dasharray:2;}#my-svg .marker{fill:#333333;stroke:#333333;}#my-svg .marker.cross{stroke:#333333;}#my-svg svg{font-family:"trebuchet ms",verdana,arial,sans-serif;font-size:16px;}#my-svg .entityBox{fill:#ECECFF;stroke:#9370DB;}#my-svg .attributeBoxOdd{fill:#ffffff;stroke:#9370DB;}#my-svg .attributeBoxEven{fill:#f2f2f2;stroke:#9370DB;}#my-svg .relationshipLabelBox{fill:hsl(80, 100%, 96.2745098039%);opacity:0.7;background-color:hsl(80, 100%, 96.2745098039%);}#my-svg .relationshipLabelBox rect{opacity:0.5;}#my-svg .relationshipLine{stroke:#333333;}#my-svg .entityTitleText{text-anchor:middle;font-size:18px;fill:#333;}#my-svg #MD_PARENT_START{fill:#f5f5f5!important;stroke:#333333!important;stroke-width:1;}#my-svg #MD_PARENT_END{fill:#f5f5f5!important;stroke:#333333!important;stroke-width:1;}#my-svg :root{--mermaid-font-family:"trebuchet ms",verdana,arial,sans-serif;}</style><g/><defs><marker orient="auto" markerHeight="240" markerWidth="190" refY="7" refX="0" id="MD_PARENT_START"><path d="M 18,7 L9,13 L1,7 L9,1 Z"/></marker></defs><defs><marker orient="auto" markerHeight="28" markerWidth="20" refY="7" refX="19" id="MD_PARENT_END"><path d="M 18,7 L9,13 L1,7 L9,1 Z"/></marker></defs><defs><marker orient="auto" markerHeight="18" markerWidth="18" refY="9" refX="0" id="ONLY_ONE_START"><path d="M9,0 L9,18 M15,0 L15,18" fill="none" stroke="gray"/></marker></defs><defs><marker orient="auto" markerHeight="18" markerWidth="18" refY="9" refX="18" id="ONLY_ONE_END"><path d="M3,0 L3,18 M9,0 L9,18" fill="none" stroke="gray"/></marker></defs><defs><marker orient="auto" markerHeight="18" markerWidth="30" refY="9" refX="0" id="ZERO_OR_ONE_START"><circle r="6" cy="9" cx="21" fill="white" stroke="gray"/><path d="M9,0 L9,18" fill="none" stroke="gray"/></marker></defs><defs><marker orient="auto" markerHeight="18" markerWidth="30" refY="9" refX="30" id="ZERO_OR_ONE_END"><circle r="6" cy="9" cx="9" fill="white" stroke="gray"/><path d="M21,0 L21,18" fill="none" stroke="gray"/></marker></defs><defs><marker orient="auto" markerHeight="36" markerWidth="45" refY="18" refX="18" id="ONE_OR_MORE_START"><path d="M0,18 Q 18,0 36,18 Q 18,36 0,18 M42,9 L42,27" fill="none" stroke="gray"/></marker></defs><defs><marker orient="auto" markerHeight="36" markerWidth="45" refY="18" refX="27" id="ONE_OR_MORE_END"><path d="M3,9 L3,27 M9,18 Q27,0 45,18 Q27,36 9,18" fill="none" stroke="gray"/></marker></defs><defs><marker orient="auto" markerHeight="36" markerWidth="57" refY="18" refX="18" id="ZERO_OR_MORE_START"><circle r="6" cy="18" cx="48" fill="white" stroke="gray"/><path d="M0,18 Q18,0 36,18 Q18,36 0,18" fill="none" stroke="gray"/></marker></defs><defs><marker orient="auto" markerHeight="36" markerWidth="57" refY="18" refX="39" id="ZERO_OR_MORE_END"><circle r="6" cy="18" cx="9" fill="white" stroke="gray"/><path d="M21,18 Q39,0 57,18 Q39,36 21,18" fill="none" stroke="gray"/></marker></defs><path style="stroke: gray; fill: none;" marker-start="url(#ZERO_OR_MORE_START)" marker-end="url(#ZERO_OR_MORE_END)" stroke-dasharray="8,8" d="M108.862,95L108.862,103.333C108.862,111.667,108.862,128.333,134.559,145C160.256,161.667,211.65,178.333,237.346,186.667L263.043,195" class="er relationshipLine"/><path style="stroke: gray; fill: none;" marker-start="url(#ZERO_OR_MORE_START)" marker-end="url(#ONLY_ONE_END)" d="M364.803,80L364.803,90.833C364.803,101.667,364.803,123.333,364.803,142.5C364.803,161.667,364.803,178.333,364.803,186.667L364.803,195" class="er relationshipLine"/><path style="stroke: gray; fill: none;" marker-start="url(#ZERO_OR_MORE_START)" marker-end="url(#ZERO_OR_MORE_END)" stroke-dasharray="8,8" d="M634.422,95L634.422,103.333C634.422,111.667,634.422,128.333,607.352,145C580.281,161.667,526.141,178.333,499.071,186.667L472.001,195" class="er relationshipLine"/><path style="stroke: gray; fill: none;" marker-start="url(#ZERO_OR_MORE_START)" marker-end="url(#ONLY_ONE_END)" d="M364.803,261L364.803,269.333C364.803,277.667,364.803,294.333,364.803,311C364.803,327.667,364.803,344.333,364.803,352.667L364.803,361" class="er relationshipLine"/><path style="stroke: gray; fill: none;" marker-start="url(#ZERO_OR_MORE_START)" marker-end="url(#ZERO_OR_MORE_END)" d="M364.803,406L364.803,414.333C364.803,422.667,364.803,439.333,364.803,456C364.803,472.667,364.803,489.333,364.803,497.667L364.803,506" class="er relationshipLine"/><g transform="translate(297.724609375,35 )" id="entity-UserGroup-434c46d6-fb26-5421-9e35-e767140ba284"><rect height="45" width="134.15625" y="0" x="0" class="er entityBox"/><text style="dominant-baseline: middle; text-anchor: middle; font-size: 12px;" transform="translate(67.078125,12)" y="0" x="0" id="text-entity-UserGroup-434c46d6-fb26-5421-9e35-e767140ba284" class="er entityLabel">User Group</text><rect height="21" width="35.245819091796875" y="24" x="0" class="er attributeBoxOdd"/><text style="dominant-baseline: middle; font-size: 10.2px;" transform="translate(5,34.5)" y="0" x="0" id="text-entity-UserGroup-434c46d6-fb26-5421-9e35-e767140ba284-attr-1-type" class="er entityLabel">string</text><rect height="21" width="75.6875" y="24" x="35.245819091796875" class="er attributeBoxOdd"/><text style="dominant-baseline: middle; font-size: 10.2px;" transform="translate(40.245819091796875,34.5)" y="0" x="0" id="text-entity-UserGroup-434c46d6-fb26-5421-9e35-e767140ba284-attr-1-name" class="er entityLabel">accessVersion</text><rect height="21" width="23.222930908203125" y="24" x="110.93331909179688" class="er attributeBoxOdd"/><text style="dominant-baseline: middle; font-size: 10.2px;" transform="translate(115.93331909179688,34.5)" y="0" x="0" id="text-entity-UserGroup-434c46d6-fb26-5421-9e35-e767140ba284-attr-1-key" class="er entityLabel">FK</text></g><g transform="translate(20,20 )" id="entity-ColumnGroupAccessRule-5bf1a3ea-6e6d-5b6c-a254-1b3979cf9001"><rect height="75" width="177.724609375" y="0" x="0" class="er entityBox"/><text style="dominant-baseline: middle; text-anchor: middle; font-size: 12px;" transform="translate(88.8623046875,37.5)" y="0" x="0" id="text-entity-ColumnGroupAccessRule-5bf1a3ea-6e6d-5b6c-a254-1b3979cf9001" class="er entityLabel">Column Group Access Rule</text></g><g transform="translate(203.51181030273438,195 )" id="entity-AccessVersion-2129f96f-61a7-5911-9265-442fab2a00d6"><rect height="66" width="322.58184814453125" y="0" x="0" class="er entityBox"/><text style="dominant-baseline: middle; text-anchor: middle; font-size: 12px;" transform="translate(161.29092407226562,12)" y="0" x="0" id="text-entity-AccessVersion-2129f96f-61a7-5911-9265-442fab2a00d6" class="er entityLabel">Access Version</text><rect height="21" width="60.3360595703125" y="24" x="0" class="er attributeBoxOdd"/><text style="dominant-baseline: middle; font-size: 10.2px;" transform="translate(5,34.5)" y="0" x="0" id="text-entity-AccessVersion-2129f96f-61a7-5911-9265-442fab2a00d6-attr-1-type" class="er entityLabel">Timestamp</text><rect height="21" width="65.44473266601562" y="24" x="60.3360595703125" class="er attributeBoxOdd"/><text style="dominant-baseline: middle; font-size: 10.2px;" transform="translate(65.3360595703125,34.5)" y="0" x="0" id="text-entity-AccessVersion-2129f96f-61a7-5911-9265-442fab2a00d6-attr-1-name" class="er entityLabel">arSnapTime</text><rect height="21" width="23.222930908203125" y="24" x="125.78079223632812" class="er attributeBoxOdd"/><text style="dominant-baseline: middle; font-size: 10.2px;" transform="translate(130.78079223632812,34.5)" y="0" x="0" id="text-entity-AccessVersion-2129f96f-61a7-5911-9265-442fab2a00d6-attr-1-key" class="er entityLabel"/><rect height="21" width="173.578125" y="24" x="149.00372314453125" class="er attributeBoxOdd"/><text style="dominant-baseline: middle; font-size: 10.2px;" transform="translate(154.00372314453125,34.5)" y="0" x="0" id="text-entity-AccessVersion-2129f96f-61a7-5911-9265-442fab2a00d6-attr-1-comment" class="er entityLabel">e.g. 2024-01-27(T00:00:00)</text><rect height="21" width="60.3360595703125" y="45" x="0" class="er attributeBoxEven"/><text style="dominant-baseline: middle; font-size: 10.2px;" transform="translate(5,55.5)" y="0" x="0" id="text-entity-AccessVersion-2129f96f-61a7-5911-9265-442fab2a00d6-attr-2-type" class="er entityLabel">string</text><rect height="21" width="65.44473266601562" y="45" x="60.3360595703125" class="er attributeBoxEven"/><text style="dominant-baseline: middle; font-size: 10.2px;" transform="translate(65.3360595703125,55.5)" y="0" x="0" id="text-entity-AccessVersion-2129f96f-61a7-5911-9265-442fab2a00d6-attr-2-name" class="er entityLabel">dataVersion</text><rect height="21" width="23.222930908203125" y="45" x="125.78079223632812" class="er attributeBoxEven"/><text style="dominant-baseline: middle; font-size: 10.2px;" transform="translate(130.78079223632812,55.5)" y="0" x="0" id="text-entity-AccessVersion-2129f96f-61a7-5911-9265-442fab2a00d6-attr-2-key" class="er entityLabel">FK</text><rect height="21" width="173.578125" y="45" x="149.00372314453125" class="er attributeBoxEven"/><text style="dominant-baseline: middle; font-size: 10.2px;" transform="translate(154.00372314453125,55.5)" y="0" x="0" id="text-entity-AccessVersion-2129f96f-61a7-5911-9265-442fab2a00d6-attr-2-comment" class="er entityLabel">Refer to by identifier (e.g. 'D2024-1')</text></g><g transform="translate(531.880859375,20 )" id="entity-DataSubjectGroupAccessRule-7a821aef-bdaf-534e-82e7-46740f94ebbe"><rect height="75" width="205.08203125" y="0" x="0" class="er entityBox"/><text style="dominant-baseline: middle; text-anchor: middle; font-size: 12px;" transform="translate(102.541015625,37.5)" y="0" x="0" id="text-entity-DataSubjectGroupAccessRule-7a821aef-bdaf-534e-82e7-46740f94ebbe" class="er entityLabel">Data Subject Group Access Rule</text></g><g transform="translate(229.222900390625,361 )" id="entity-DataVersion-1a9e724f-5c5e-58fd-8650-4a7ac608819a"><rect height="45" width="271.15966796875" y="0" x="0" class="er entityBox"/><text style="dominant-baseline: middle; text-anchor: middle; font-size: 12px;" transform="translate(135.579833984375,12)" y="0" x="0" id="text-entity-DataVersion-1a9e724f-5c5e-58fd-8650-4a7ac608819a" class="er entityLabel">Data Version</text><rect height="21" width="60.3360595703125" y="24" x="0" class="er attributeBoxOdd"/><text style="dominant-baseline: middle; font-size: 10.2px;" transform="translate(5,34.5)" y="0" x="0" id="text-entity-DataVersion-1a9e724f-5c5e-58fd-8650-4a7ac608819a-attr-1-type" class="er entityLabel">Timestamp</text><rect height="21" width="76.2142333984375" y="24" x="60.3360595703125" class="er attributeBoxOdd"/><text style="dominant-baseline: middle; font-size: 10.2px;" transform="translate(65.3360595703125,34.5)" y="0" x="0" id="text-entity-DataVersion-1a9e724f-5c5e-58fd-8650-4a7ac608819a-attr-1-name" class="er entityLabel">dataSnapTime</text><rect height="21" width="134.609375" y="24" x="136.55029296875" class="er attributeBoxOdd"/><text style="dominant-baseline: middle; font-size: 10.2px;" transform="translate(141.55029296875,34.5)" y="0" x="0" id="text-entity-DataVersion-1a9e724f-5c5e-58fd-8650-4a7ac608819a-attr-1-comment" class="er entityLabel">e.g. 2024-01-27(T00:00:00)</text></g><g transform="translate(314.802734375,506 )" id="entity-CellData-ca9668cd-3ade-552a-9c34-aa102c782281"><rect height="75" width="100" y="0" x="0" class="er entityBox"/><text style="dominant-baseline: middle; text-anchor: middle; font-size: 12px;" transform="translate(50,37.5)" y="0" x="0" id="text-entity-CellData-ca9668cd-3ade-552a-9c34-aa102c782281" class="er entityLabel">Cell Data</text></g><rect height="14" width="164.2421875" y="155.47596740722656" x="87.45884704589844" class="er relationshipLabelBox"/><text style="text-anchor: middle; dominant-baseline: middle; font-size: 12px;" y="162.47596740722656" x="169.57994079589844" id="rel1" class="er relationshipLabel">use CGAR's up to arSnapTime</text><rect height="14" width="170.75" y="130.5" x="279.4280090332031" class="er relationshipLabelBox"/><text style="text-anchor: middle; dominant-baseline: middle; font-size: 12px;" y="137.5" x="364.8030090332031" id="rel2" class="er relationshipLabel">has access to this data version</text><rect height="14" width="163.580078125" y="155.86944580078125" x="487.66778564453125" class="er relationshipLabelBox"/><text style="text-anchor: middle; dominant-baseline: middle; font-size: 12px;" y="162.86944580078125" x="569.4578247070312" id="rel3" class="er relationshipLabel">use PGAR's up to arSnapTime</text><rect height="14" width="152.1015625" y="304" x="288.7522277832031" class="er relationshipLabelBox"/><text style="text-anchor: middle; dominant-baseline: middle; font-size: 12px;" y="311" x="364.8030090332031" id="rel4" class="er relationshipLabel">repository data pinpointed at</text><rect height="14" width="140.640625" y="449" x="294.4826965332031" class="er relationshipLabelBox"/><text style="text-anchor: middle; dominant-baseline: middle; font-size: 12px;" y="456" x="364.8030090332031" id="rel5" class="er relationshipLabel">use data at dataSnapTime</text><text class="entityTitleText" y="-25" x="378.4814453125">Access Rules- and Data Versioning Diagram</text></svg>
