<svg aria-roledescription="er" role="graphics-document document" viewBox="0 -61 726.271484375 662" style="max-width: 726.271px; background-color: white;" xmlns:xlink="http://www.w3.org/1999/xlink" xmlns="http://www.w3.org/2000/svg" width="100%" id="my-svg"><style>#my-svg{font-family:"trebuchet ms",verdana,arial,sans-serif;font-size:16px;fill:#333;}#my-svg .error-icon{fill:#552222;}#my-svg .error-text{fill:#552222;stroke:#552222;}#my-svg .edge-thickness-normal{stroke-width:2px;}#my-svg .edge-thickness-thick{stroke-width:3.5px;}#my-svg .edge-pattern-solid{stroke-dasharray:0;}#my-svg .edge-pattern-dashed{stroke-dasharray:3;}#my-svg .edge-pattern-dotted{stroke-dasharray:2;}#my-svg .marker{fill:#333333;stroke:#333333;}#my-svg .marker.cross{stroke:#333333;}#my-svg svg{font-family:"trebuchet ms",verdana,arial,sans-serif;font-size:16px;}#my-svg .entityBox{fill:#ECECFF;stroke:#9370DB;}#my-svg .attributeBoxOdd{fill:#ffffff;stroke:#9370DB;}#my-svg .attributeBoxEven{fill:#f2f2f2;stroke:#9370DB;}#my-svg .relationshipLabelBox{fill:hsl(80, 100%, 96.2745098039%);opacity:0.7;background-color:hsl(80, 100%, 96.2745098039%);}#my-svg .relationshipLabelBox rect{opacity:0.5;}#my-svg .relationshipLine{stroke:#333333;}#my-svg .entityTitleText{text-anchor:middle;font-size:18px;fill:#333;}#my-svg #MD_PARENT_START{fill:#f5f5f5!important;stroke:#333333!important;stroke-width:1;}#my-svg #MD_PARENT_END{fill:#f5f5f5!important;stroke:#333333!important;stroke-width:1;}#my-svg :root{--mermaid-font-family:"trebuchet ms",verdana,arial,sans-serif;}</style><g/><defs><marker orient="auto" markerHeight="240" markerWidth="190" refY="7" refX="0" id="MD_PARENT_START"><path d="M 18,7 L9,13 L1,7 L9,1 Z"/></marker></defs><defs><marker orient="auto" markerHeight="28" markerWidth="20" refY="7" refX="19" id="MD_PARENT_END"><path d="M 18,7 L9,13 L1,7 L9,1 Z"/></marker></defs><defs><marker orient="auto" markerHeight="18" markerWidth="18" refY="9" refX="0" id="ONLY_ONE_START"><path d="M9,0 L9,18 M15,0 L15,18" fill="none" stroke="gray"/></marker></defs><defs><marker orient="auto" markerHeight="18" markerWidth="18" refY="9" refX="18" id="ONLY_ONE_END"><path d="M3,0 L3,18 M9,0 L9,18" fill="none" stroke="gray"/></marker></defs><defs><marker orient="auto" markerHeight="18" markerWidth="30" refY="9" refX="0" id="ZERO_OR_ONE_START"><circle r="6" cy="9" cx="21" fill="white" stroke="gray"/><path d="M9,0 L9,18" fill="none" stroke="gray"/></marker></defs><defs><marker orient="auto" markerHeight="18" markerWidth="30" refY="9" refX="30" id="ZERO_OR_ONE_END"><circle r="6" cy="9" cx="9" fill="white" stroke="gray"/><path d="M21,0 L21,18" fill="none" stroke="gray"/></marker></defs><defs><marker orient="auto" markerHeight="36" markerWidth="45" refY="18" refX="18" id="ONE_OR_MORE_START"><path d="M0,18 Q 18,0 36,18 Q 18,36 0,18 M42,9 L42,27" fill="none" stroke="gray"/></marker></defs><defs><marker orient="auto" markerHeight="36" markerWidth="45" refY="18" refX="27" id="ONE_OR_MORE_END"><path d="M3,9 L3,27 M9,18 Q27,0 45,18 Q27,36 9,18" fill="none" stroke="gray"/></marker></defs><defs><marker orient="auto" markerHeight="36" markerWidth="57" refY="18" refX="18" id="ZERO_OR_MORE_START"><circle r="6" cy="18" cx="48" fill="white" stroke="gray"/><path d="M0,18 Q18,0 36,18 Q18,36 0,18" fill="none" stroke="gray"/></marker></defs><defs><marker orient="auto" markerHeight="36" markerWidth="57" refY="18" refX="39" id="ZERO_OR_MORE_END"><circle r="6" cy="18" cx="9" fill="white" stroke="gray"/><path d="M21,18 Q39,0 57,18 Q39,36 21,18" fill="none" stroke="gray"/></marker></defs><path style="stroke: gray; fill: none;" marker-start="url(#ZERO_OR_MORE_START)" marker-end="url(#ZERO_OR_MORE_END)" stroke-dasharray="8,8" d="M104.192,95L104.192,103.333C104.192,111.667,104.192,128.333,129.42,145C154.648,161.667,205.104,178.333,230.332,186.667L255.56,195" class="er relationshipLine"/><path style="stroke: gray; fill: none;" marker-start="url(#ZERO_OR_MORE_START)" marker-end="url(#ZERO_OR_MORE_END)" d="M355.463,80L355.463,90.833C355.463,101.667,355.463,123.333,355.463,142.5C355.463,161.667,355.463,178.333,355.463,186.667L355.463,195" class="er relationshipLine"/><path style="stroke: gray; fill: none;" marker-start="url(#ZERO_OR_MORE_START)" marker-end="url(#ZERO_OR_MORE_END)" stroke-dasharray="8,8" d="M614.406,95L614.406,103.333C614.406,111.667,614.406,128.333,588.408,145C562.41,161.667,510.413,178.333,484.415,186.667L458.416,195" class="er relationshipLine"/><path style="stroke: gray; fill: none;" marker-start="url(#ZERO_OR_MORE_START)" marker-end="url(#ONLY_ONE_END)" d="M355.463,261L355.463,269.333C355.463,277.667,355.463,294.333,355.463,311C355.463,327.667,355.463,344.333,355.463,352.667L355.463,361" class="er relationshipLine"/><path style="stroke: gray; fill: none;" marker-start="url(#ZERO_OR_MORE_START)" marker-end="url(#ZERO_OR_MORE_END)" d="M355.463,406L355.463,414.333C355.463,422.667,355.463,439.333,355.463,456C355.463,472.667,355.463,489.333,355.463,497.667L355.463,506" class="er relationshipLine"/><g transform="translate(288.384765625,35 )" id="entity-UserGroup-6e857f83-3241-5446-8b82-417e970489fe"><rect height="45" width="134.15625" y="0" x="0" class="er entityBox"/><text style="dominant-baseline: middle; text-anchor: middle; font-size: 12px;" transform="translate(67.078125,12)" y="0" x="0" id="text-entity-UserGroup-6e857f83-3241-5446-8b82-417e970489fe" class="er entityLabel">UserGroup</text><rect height="21" width="35.245819091796875" y="24" x="0" class="er attributeBoxOdd"/><text style="dominant-baseline: middle; font-size: 10.2px;" transform="translate(5,34.5)" y="0" x="0" id="text-entity-UserGroup-6e857f83-3241-5446-8b82-417e970489fe-attr-1-type" class="er entityLabel">string</text><rect height="21" width="75.6875" y="24" x="35.245819091796875" class="er attributeBoxOdd"/><text style="dominant-baseline: middle; font-size: 10.2px;" transform="translate(40.245819091796875,34.5)" y="0" x="0" id="text-entity-UserGroup-6e857f83-3241-5446-8b82-417e970489fe-attr-1-name" class="er entityLabel">accessVersion</text><rect height="21" width="23.222930908203125" y="24" x="110.93331909179688" class="er attributeBoxOdd"/><text style="dominant-baseline: middle; font-size: 10.2px;" transform="translate(115.93331909179688,34.5)" y="0" x="0" id="text-entity-UserGroup-6e857f83-3241-5446-8b82-417e970489fe-attr-1-key" class="er entityLabel">FK</text></g><g transform="translate(20,20 )" id="entity-ColumnGroupAccessRule-dfa79e14-a3fa-597f-8416-140864859846"><rect height="75" width="168.384765625" y="0" x="0" class="er entityBox"/><text style="dominant-baseline: middle; text-anchor: middle; font-size: 12px;" transform="translate(84.1923828125,37.5)" y="0" x="0" id="text-entity-ColumnGroupAccessRule-dfa79e14-a3fa-597f-8416-140864859846" class="er entityLabel">ColumnGroupAccessRule</text></g><g transform="translate(194.17196655273438,195 )" id="entity-AccessVersion-1e9c0cc1-0e4c-5ab9-9157-93c89aecbbcc"><rect height="66" width="322.58184814453125" y="0" x="0" class="er entityBox"/><text style="dominant-baseline: middle; text-anchor: middle; font-size: 12px;" transform="translate(161.29092407226562,12)" y="0" x="0" id="text-entity-AccessVersion-1e9c0cc1-0e4c-5ab9-9157-93c89aecbbcc" class="er entityLabel">AccessVersion</text><rect height="21" width="60.3360595703125" y="24" x="0" class="er attributeBoxOdd"/><text style="dominant-baseline: middle; font-size: 10.2px;" transform="translate(5,34.5)" y="0" x="0" id="text-entity-AccessVersion-1e9c0cc1-0e4c-5ab9-9157-93c89aecbbcc-attr-1-type" class="er entityLabel">Timestamp</text><rect height="21" width="65.44473266601562" y="24" x="60.3360595703125" class="er attributeBoxOdd"/><text style="dominant-baseline: middle; font-size: 10.2px;" transform="translate(65.3360595703125,34.5)" y="0" x="0" id="text-entity-AccessVersion-1e9c0cc1-0e4c-5ab9-9157-93c89aecbbcc-attr-1-name" class="er entityLabel">arSnapTime</text><rect height="21" width="23.222930908203125" y="24" x="125.78079223632812" class="er attributeBoxOdd"/><text style="dominant-baseline: middle; font-size: 10.2px;" transform="translate(130.78079223632812,34.5)" y="0" x="0" id="text-entity-AccessVersion-1e9c0cc1-0e4c-5ab9-9157-93c89aecbbcc-attr-1-key" class="er entityLabel"/><rect height="21" width="173.578125" y="24" x="149.00372314453125" class="er attributeBoxOdd"/><text style="dominant-baseline: middle; font-size: 10.2px;" transform="translate(154.00372314453125,34.5)" y="0" x="0" id="text-entity-AccessVersion-1e9c0cc1-0e4c-5ab9-9157-93c89aecbbcc-attr-1-comment" class="er entityLabel">e.g. 2024-01-27(T00:00:00)</text><rect height="21" width="60.3360595703125" y="45" x="0" class="er attributeBoxEven"/><text style="dominant-baseline: middle; font-size: 10.2px;" transform="translate(5,55.5)" y="0" x="0" id="text-entity-AccessVersion-1e9c0cc1-0e4c-5ab9-9157-93c89aecbbcc-attr-2-type" class="er entityLabel">string</text><rect height="21" width="65.44473266601562" y="45" x="60.3360595703125" class="er attributeBoxEven"/><text style="dominant-baseline: middle; font-size: 10.2px;" transform="translate(65.3360595703125,55.5)" y="0" x="0" id="text-entity-AccessVersion-1e9c0cc1-0e4c-5ab9-9157-93c89aecbbcc-attr-2-name" class="er entityLabel">dataVersion</text><rect height="21" width="23.222930908203125" y="45" x="125.78079223632812" class="er attributeBoxEven"/><text style="dominant-baseline: middle; font-size: 10.2px;" transform="translate(130.78079223632812,55.5)" y="0" x="0" id="text-entity-AccessVersion-1e9c0cc1-0e4c-5ab9-9157-93c89aecbbcc-attr-2-key" class="er entityLabel">FK</text><rect height="21" width="173.578125" y="45" x="149.00372314453125" class="er attributeBoxEven"/><text style="dominant-baseline: middle; font-size: 10.2px;" transform="translate(154.00372314453125,55.5)" y="0" x="0" id="text-entity-AccessVersion-1e9c0cc1-0e4c-5ab9-9157-93c89aecbbcc-attr-2-comment" class="er entityLabel">Refer to by identifier (e.g. 'D2024-1')</text></g><g transform="translate(522.541015625,20 )" id="entity-ParticipantGroupAccessRule-40305eea-034c-56eb-ade0-316d6a9caa1e"><rect height="75" width="183.73046875" y="0" x="0" class="er entityBox"/><text style="dominant-baseline: middle; text-anchor: middle; font-size: 12px;" transform="translate(91.865234375,37.5)" y="0" x="0" id="text-entity-ParticipantGroupAccessRule-40305eea-034c-56eb-ade0-316d6a9caa1e" class="er entityLabel">ParticipantGroupAccessRule</text></g><g transform="translate(219.883056640625,361 )" id="entity-DataVersion-ae3f21ed-55d4-5766-aa1a-f8c1e3800a4d"><rect height="45" width="271.15966796875" y="0" x="0" class="er entityBox"/><text style="dominant-baseline: middle; text-anchor: middle; font-size: 12px;" transform="translate(135.579833984375,12)" y="0" x="0" id="text-entity-DataVersion-ae3f21ed-55d4-5766-aa1a-f8c1e3800a4d" class="er entityLabel">DataVersion</text><rect height="21" width="60.3360595703125" y="24" x="0" class="er attributeBoxOdd"/><text style="dominant-baseline: middle; font-size: 10.2px;" transform="translate(5,34.5)" y="0" x="0" id="text-entity-DataVersion-ae3f21ed-55d4-5766-aa1a-f8c1e3800a4d-attr-1-type" class="er entityLabel">Timestamp</text><rect height="21" width="76.2142333984375" y="24" x="60.3360595703125" class="er attributeBoxOdd"/><text style="dominant-baseline: middle; font-size: 10.2px;" transform="translate(65.3360595703125,34.5)" y="0" x="0" id="text-entity-DataVersion-ae3f21ed-55d4-5766-aa1a-f8c1e3800a4d-attr-1-name" class="er entityLabel">dataSnapTime</text><rect height="21" width="134.609375" y="24" x="136.55029296875" class="er attributeBoxOdd"/><text style="dominant-baseline: middle; font-size: 10.2px;" transform="translate(141.55029296875,34.5)" y="0" x="0" id="text-entity-DataVersion-ae3f21ed-55d4-5766-aa1a-f8c1e3800a4d-attr-1-comment" class="er entityLabel">e.g. 2024-01-27(T00:00:00)</text></g><g transform="translate(305.462890625,506 )" id="entity-CellData-960f15c6-7d3f-567c-b41c-9073c24c8001"><rect height="75" width="100" y="0" x="0" class="er entityBox"/><text style="dominant-baseline: middle; text-anchor: middle; font-size: 12px;" transform="translate(50,37.5)" y="0" x="0" id="text-entity-CellData-960f15c6-7d3f-567c-b41c-9073c24c8001" class="er entityLabel">CellData</text></g><rect height="14" width="164.2421875" y="155.3319854736328" x="81.3414306640625" class="er relationshipLabelBox"/><text style="text-anchor: middle; dominant-baseline: middle; font-size: 12px;" y="162.3319854736328" x="163.4625244140625" id="rel1" class="er relationshipLabel">use CGAR's up to arSnapTime</text><rect height="14" width="170.75" y="130.5" x="270.0880126953125" class="er relationshipLabelBox"/><text style="text-anchor: middle; dominant-baseline: middle; font-size: 12px;" y="137.5" x="355.4630126953125" id="rel2" class="er relationshipLabel">may access these data versions</text><rect height="14" width="163.580078125" y="155.56642150878906" x="470.96685791015625" class="er relationshipLabelBox"/><text style="text-anchor: middle; dominant-baseline: middle; font-size: 12px;" y="162.56642150878906" x="552.7568969726562" id="rel3" class="er relationshipLabel">use PGAR's up to arSnapTime</text><rect height="14" width="152.1015625" y="304" x="279.4122314453125" class="er relationshipLabelBox"/><text style="text-anchor: middle; dominant-baseline: middle; font-size: 12px;" y="311" x="355.4630126953125" id="rel4" class="er relationshipLabel">repository data pinpointed at</text><rect height="14" width="140.640625" y="449" x="285.1427001953125" class="er relationshipLabelBox"/><text style="text-anchor: middle; dominant-baseline: middle; font-size: 12px;" y="456" x="355.4630126953125" id="rel5" class="er relationshipLabel">use data at dataSnapTime</text><text class="entityTitleText" y="-25" x="363.1357421875">Access Rules- and Data Versioning Diagram</text></svg>