<?xml version="1.0" encoding="UTF-8" standalone="yes"?>
<!DOCTYPE svg PUBLIC "-//W3C//DTD SVG 1.1//EN" "http://www.w3.org/Graphics/SVG/1.1/DTD/svg11.dtd">

<svg width="578" height="274" viewBox="0 0 578 274" xmlns="http://www.w3.org/2000/svg" xmlns:xlink="http://www.w3.org/1999/xlink" version="1.1" baseProfile="full">
    <g transform="scale(1,-1) translate(0,-274)">
        <path d="M 12.728289 64.934617 L 51.533321 64.934617 L 47.697019 62.525722 L 60.632028 89.344153 C 62.332935 92.870680 67.490617 92.427003 68.564271 88.661801 L 81.499282 43.299955 L 73.203751 42.842156 L 86.138761 119.333743 C 86.940714 124.076115 93.759364 124.061478 94.540949 119.315707 L 111.337570 17.326923 L 103.196368 18.255992 L 121.324267 62.296604 C 121.981290 63.892800 123.536741 64.934617 125.262870 64.934617 L 218.394944 64.934617 L 218.394944 56.416193 L 125.262870 56.416193 L 129.201474 59.054206 L 111.073575 15.013594 C 109.440624 11.046441 103.629519 11.709601 102.932372 15.942664 L 86.135751 117.931447 L 94.537939 117.913411 L 81.602929 41.421824 C 80.846454 36.948388 74.551524 36.600994 73.307398 40.964025 L 60.372387 86.325871 L 68.304631 85.643519 L 55.369622 58.825088 C 54.659269 57.352297 53.168470 56.416193 51.533321 56.416193 L 12.728289 56.416193 L 12.728289 64.934617 Z" transform="scale(0.500000,0.500000) translate(146.000000,242.000000)" fill="#ffffff" opacity="1.000000"></path>
        <path d="M 109.812600 3.109600 L 111.874700 3.660500 L 113.840300 4.536800 L 115.665500 5.743700 L 117.306200 7.286100 L 118.718500 9.169000 L 119.858400 11.397500 L 134.478500 46.916100 L 218.394900 46.916100 L 220.309500 47.109100 L 222.092700 47.662700 L 223.706400 48.538600 L 225.112400 49.698600 L 226.272400 51.104600 L 227.148300 52.718300 L 227.701900 54.501600 L 227.894900 56.416100 L 227.894900 64.934600 L 227.701900 66.849100 L 227.148300 68.632400 L 226.272400 70.246100 L 225.112400 71.652100 L 223.706400 72.812100 L 222.092700 73.688000 L 220.309500 74.241600 L 218.394900 74.434600 L 125.262800 74.434600 L 123.202200 74.279900 L 121.220800 73.828100 L 119.346200 73.097800 L 117.605900 72.107200 L 116.027600 70.875000 L 114.638600 69.419500 L 113.466700 67.759200 L 112.859000 66.549200 L 103.914600 120.859400 L 103.222200 123.554900 L 102.129700 125.892000 L 100.694200 127.870600 L 98.972700 129.490700 L 97.022300 130.752100 L 94.900000 131.654600 L 92.662800 132.198200 L 90.367800 132.382700 L 88.072100 132.208000 L 85.832600 131.674100 L 83.706500 130.780600 L 81.750700 129.527700 L 80.022200 127.915000 L 78.578200 125.942500 L 77.475700 123.610100 L 76.771700 120.917700 L 72.959700 98.375300 L 71.326600 99.462500 L 69.516800 100.313400 L 67.611900 100.894300 L 65.647500 101.202400 L 63.659400 101.234300 L 61.683300 100.987200 L 59.754700 100.457900 L 57.909500 99.643300 L 56.183200 98.540400 L 54.611700 97.146200 L 53.230400 95.457400 L 52.075300 93.471200 L 42.893600 74.434600 L 12.728200 74.434600 L 10.813700 74.241600 L 9.030400 73.688000 L 7.416700 72.812100 L 6.010700 71.652100 L 4.850700 70.246100 L 3.974800 68.632400 L 3.421200 66.849100 L 3.228200 64.934600 L 3.228200 56.416100 L 3.421200 54.501600 L 3.974800 52.718300 L 4.850700 51.104600 L 6.010700 49.698600 L 7.416700 48.538600 L 9.030400 47.662700 L 10.813700 47.109100 L 12.728200 46.916100 L 51.533300 46.916100 L 53.488300 47.055400 L 55.375400 47.463000 L 57.170800 48.123900 L 58.850100 49.022900 L 60.389400 50.144900 L 60.719600 50.464300 L 64.171500 38.358900 L 65.108000 35.894000 L 66.376700 33.783000 L 67.927600 32.023100 L 69.710700 30.611600 L 71.675700 29.545600 L 73.772500 28.822500 L 75.951200 28.439400 L 78.161500 28.393600 L 80.353300 28.682400 L 82.476500 29.302800 L 84.481100 30.252300 L 86.316900 31.528000 L 87.933700 33.127200 L 89.281600 35.047000 L 89.926900 36.450600 L 93.558600 14.398800 L 94.167100 11.970800 L 95.118900 9.818100 L 96.369900 7.945700 L 97.876200 6.358600 L 99.593800 5.062000 L 101.478800 4.060700 L 103.487100 3.359700 L 105.574900 2.964300 L 107.698000 2.879200 Z M 105.384000 12.742400 L 104.268900 13.453700 L 103.415300 14.524600 L 102.932300 15.942600 L 90.282800 92.750500 L 81.602900 41.421800 L 81.080300 39.938800 L 80.162500 38.849500 L 78.973700 38.160600 L 77.638000 37.879200 L 76.279400 38.012000 L 75.022000 38.565800 L 73.990000 39.547500 L 73.307300 40.964000 L 63.441800 75.561300 L 55.369600 58.825000 L 54.700400 57.827300 L 53.798200 57.068300 L 52.722600 56.585400 L 51.533300 56.416100 L 12.728200 56.416100 L 12.728200 64.934600 L 48.858900 64.934600 L 60.632000 89.344100 L 61.417100 90.481700 L 62.438000 91.254700 L 63.606200 91.670700 L 64.833300 91.737300 L 66.031100 91.462100 L 67.111100 90.852700 L 67.984900 89.916700 L 68.564200 88.661800 L 76.340400 61.391300 L 86.138700 119.333700 L 86.356600 120.167100 L 86.697900 120.889100 L 87.680000 121.998900 L 88.943600 122.663400 L 90.347400 122.882700 L 91.750400 122.657300 L 93.011100 121.987500 L 93.988400 120.873500 L 94.326500 120.150000 L 94.540900 119.315700 L 108.901700 32.116900 L 121.324200 62.296600 L 121.974100 63.382100 L 122.892600 64.214100 L 124.011600 64.746800 L 125.262800 64.934600 L 218.394900 64.934600 L 218.394900 56.416100 L 128.115500 56.416100 L 111.073500 15.013500 L 110.283500 13.740800 L 109.210600 12.889800 L 107.963800 12.448000 L 106.652000 12.403000 Z" transform="scale(0.500000,0.500000) translate(146.000000,242.000000)" fill="#000000" opacity="1.000000"></path>
        <path d="M 67.255400 493.214500 L 66.504600 492.981400 L 65.825000 492.612600 L 65.233200 492.124200 L 64.744700 491.532200 L 64.375900 490.852800 L 64.142700 490.101900 L 64.061600 489.295800 L 64.061600 38.629100 L 64.142700 37.823000 L 64.375900 37.072200 L 64.744700 36.392700 L 65.233200 35.800700 L 65.825000 35.312300 L 66.504600 34.943500 L 67.255400 34.710400 L 68.061600 34.629100 L 204.061600 34.629100 L 204.867700 34.710400 L 205.618600 34.943500 L 206.298000 35.312300 L 206.890000 35.800700 L 207.378400 36.392700 L 207.747200 37.072200 L 207.980300 37.823000 L 208.061600 38.629100 L 208.061600 113.972500 L 209.442900 113.849800 L 214.284200 113.543000 L 219.157600 113.357800 L 224.061600 113.295800 L 228.965600 113.357800 L 233.839000 113.543000 L 238.680300 113.849800 L 243.488000 114.276700 L 248.260600 114.822300 L 252.996700 115.485000 L 257.694700 116.263400 L 262.353200 117.155900 L 266.970600 118.161100 L 271.545500 119.277500 L 276.076400 120.503500 L 280.561800 121.837800 L 285.000100 123.278700 L 289.390000 124.824900 L 293.729800 126.474800 L 298.018200 128.226900 L 302.253500 130.079700 L 306.434400 132.031800 L 310.559400 134.081600 L 314.626900 136.227700 L 318.635400 138.468600 L 322.583500 140.802700 L 326.469700 143.228600 L 330.292400 145.744800 L 334.050200 148.349700 L 337.741600 151.042000 L 341.365100 153.820100 L 344.919200 156.682500 L 348.402400 159.627800 L 351.813300 162.654300 L 355.150300 165.760700 L 358.411900 168.945500 L 361.596600 172.207100 L 364.703000 175.544000 L 367.729600 178.954900 L 370.674800 182.438100 L 373.537200 185.992200 L 376.315300 189.615700 L 379.007600 193.307100 L 381.612600 197.065000 L 384.128700 200.887700 L 386.554600 204.773800 L 388.888800 208.721900 L 391.129600 212.730500 L 393.275700 216.798000 L 395.325500 220.922900 L 397.277600 225.103800 L 399.130400 229.339200 L 400.882500 233.627500 L 402.532400 237.967400 L 404.078600 242.357200 L 405.519600 246.795600 L 406.853800 251.280900 L 408.079900 255.811800 L 409.196300 260.386700 L 410.201500 265.004100 L 411.094000 269.662600 L 411.872400 274.360600 L 412.535100 279.096700 L 413.080600 283.869400 L 413.507600 288.677100 L 413.814400 293.518400 L 413.999500 298.391800 L 414.061600 303.295800 L 413.999500 308.199700 L 413.814400 313.073100 L 413.507600 317.914400 L 413.080600 322.722200 L 412.535100 327.494800 L 411.872400 332.230900 L 411.094000 336.928900 L 410.201500 341.587400 L 409.196300 346.204800 L 408.079900 350.779700 L 406.853800 355.310600 L 405.519600 359.795900 L 404.078600 364.234300 L 402.532400 368.624100 L 400.882500 372.964000 L 399.130400 377.252300 L 397.277600 381.487700 L 395.325500 385.668600 L 393.275700 389.793600 L 391.415000 393.320100 L 456.166000 393.320100 L 456.166000 34.629100 L 460.165900 34.629100 L 460.165900 32.629200 L 684.879700 32.629200 L 684.879700 132.604800 L 572.522800 132.604800 L 572.522800 208.295800 L 684.879700 208.295800 L 684.879700 308.271400 L 572.522800 308.271400 L 572.522800 393.320100 L 734.061600 393.320100 L 734.061600 32.629100 L 878.061600 32.629100 L 878.061600 113.683800 L 880.284200 113.543000 L 885.157600 113.357800 L 890.061600 113.295800 L 894.965600 113.357800 L 899.839000 113.543000 L 904.680300 113.849800 L 909.488000 114.276700 L 914.260600 114.822300 L 918.996700 115.485000 L 923.694700 116.263400 L 928.353200 117.155900 L 932.970700 118.161100 L 937.545600 119.277500 L 942.076400 120.503500 L 946.561800 121.837800 L 951.000100 123.278700 L 955.390000 124.824900 L 959.729800 126.474800 L 964.018200 128.226900 L 968.253500 130.079700 L 972.434500 132.031800 L 976.559400 134.081600 L 980.626900 136.227700 L 984.635400 138.468600 L 988.583500 140.802700 L 992.469700 143.228600 L 996.292400 145.744800 L 1000.050200 148.349700 L 1003.741600 151.042000 L 1007.365100 153.820100 L 1010.919200 156.682500 L 1014.402500 159.627800 L 1017.813300 162.654300 L 1021.150300 165.760700 L 1024.411900 168.945500 L 1027.596600 172.207100 L 1030.703000 175.544000 L 1033.729600 178.954900 L 1036.674800 182.438100 L 1039.537200 185.992200 L 1042.315300 189.615700 L 1045.007600 193.307100 L 1047.612600 197.065000 L 1050.128800 200.887700 L 1052.554700 204.773800 L 1054.888800 208.721900 L 1057.129600 212.730500 L 1059.275700 216.798000 L 1061.325500 220.922900 L 1063.277500 225.103800 L 1065.130500 229.339200 L 1066.882600 233.627500 L 1068.532400 237.967400 L 1070.078600 242.357200 L 1071.519600 246.795600 L 1072.853800 251.280900 L 1074.079900 255.811800 L 1075.196300 260.386700 L 1076.201500 265.004100 L 1077.094000 269.662600 L 1077.872400 274.360600 L 1078.535100 279.096700 L 1079.080600 283.869400 L 1079.507600 288.677100 L 1079.814400 293.518400 L 1079.999400 298.391800 L 1080.061600 303.295800 L 1079.999400 308.199700 L 1079.814400 313.073100 L 1079.507600 317.914400 L 1079.080600 322.722200 L 1078.535100 327.494800 L 1077.872400 332.230900 L 1077.094000 336.928900 L 1076.201500 341.587400 L 1075.196300 346.204800 L 1074.079900 350.779700 L 1072.853800 355.310600 L 1071.519600 359.795900 L 1070.078600 364.234300 L 1068.532400 368.624100 L 1066.882600 372.964000 L 1065.130500 377.252300 L 1063.277500 381.487700 L 1061.325500 385.668600 L 1059.275700 389.793600 L 1057.129600 393.861000 L 1054.888800 397.869600 L 1052.554700 401.817700 L 1050.128800 405.703800 L 1047.612600 409.526600 L 1045.007600 413.284400 L 1042.315300 416.975800 L 1039.537200 420.599300 L 1036.674800 424.153400 L 1033.729600 427.636600 L 1030.703000 431.047500 L 1027.596600 434.384400 L 1024.411900 437.646000 L 1021.150300 440.830800 L 1017.813300 443.937200 L 1014.402500 446.963800 L 1010.919200 449.909000 L 1007.365100 452.771400 L 1003.741600 455.549500 L 1000.050200 458.241800 L 996.292400 460.846700 L 992.469700 463.362900 L 988.583500 465.788800 L 984.635400 468.122900 L 980.626900 470.363800 L 976.559400 472.509900 L 972.434500 474.559700 L 968.253500 476.511800 L 964.018200 478.364600 L 959.729800 480.116700 L 955.390000 481.766600 L 951.000100 483.312800 L 946.561800 484.753700 L 942.076400 486.088000 L 937.545600 487.314100 L 932.970700 488.430400 L 928.353200 489.435600 L 923.694700 490.328200 L 918.996700 491.106500 L 914.260600 491.769200 L 909.488000 492.314800 L 904.680300 492.741700 L 899.839000 493.048500 L 894.965600 493.233700 L 890.061600 493.295800 L 885.157600 493.233700 L 880.284200 493.048500 L 875.442900 492.741700 L 870.635200 492.314800 L 865.862600 491.769200 L 864.061600 491.517200 L 864.061600 493.295800 L 68.061600 493.295800 Z M 833.622100 204.295700 L 862.274000 287.510900 L 861.980400 287.699100 L 859.824300 289.232400 L 857.746800 290.865000 L 855.751300 292.593500 L 853.841400 294.414400 L 852.020400 296.324400 L 850.291900 298.319800 L 848.659300 300.397200 L 847.126100 302.553500 L 845.695600 304.784800 L 844.371400 307.087800 L 843.156900 309.459000 L 842.055600 311.895100 L 841.070900 314.392400 L 840.206300 316.947700 L 839.465300 319.557400 L 838.851200 322.218100 L 838.367600 324.926200 L 838.017800 327.678500 L 837.805400 330.471400 L 837.733800 333.301400 L 837.805400 336.131400 L 838.017800 338.924200 L 838.367600 341.676500 L 838.851200 344.384700 L 839.465300 347.045300 L 840.206300 349.654900 L 841.070900 352.210300 L 842.055600 354.707700 L 843.156900 357.143600 L 844.371400 359.515000 L 845.695600 361.818000 L 847.126100 364.049300 L 848.659300 366.205400 L 850.291900 368.282900 L 852.020400 370.278400 L 853.841400 372.188300 L 855.751300 374.009200 L 857.746800 375.737700 L 859.824300 377.370300 L 861.980400 378.903600 L 864.211700 380.334000 L 866.514700 381.658200 L 868.886000 382.872700 L 871.322000 383.974000 L 873.819400 384.958700 L 876.374700 385.823300 L 878.984300 386.564400 L 881.645000 387.178500 L 884.353200 387.662100 L 887.105400 388.011800 L 889.898300 388.224200 L 892.728300 388.295800 L 895.558300 388.224200 L 898.351200 388.011800 L 901.103400 387.662100 L 903.811600 387.178500 L 906.472300 386.564400 L 909.082000 385.823300 L 911.637200 384.958700 L 914.134600 383.974000 L 916.570700 382.872700 L 918.941900 381.658200 L 921.244900 380.334000 L 923.476200 378.903600 L 925.632300 377.370300 L 927.709900 375.737700 L 929.705300 374.009200 L 931.615200 372.188300 L 933.436200 370.278400 L 935.164700 368.282900 L 936.797300 366.205400 L 938.330500 364.049300 L 939.761000 361.818000 L 941.085200 359.515000 L 942.299700 357.143600 L 943.401000 354.707700 L 944.385700 352.210300 L 945.250300 349.654900 L 945.991300 347.045300 L 946.605400 344.384700 L 947.089100 341.676500 L 947.438800 338.924200 L 947.651200 336.131400 L 947.722700 333.301400 L 947.651200 330.471400 L 947.438800 327.678500 L 947.089100 324.926200 L 946.605400 322.218100 L 945.991300 319.557400 L 945.250300 316.947700 L 944.385700 314.392400 L 943.401000 311.895100 L 942.299700 309.459000 L 941.085200 307.087800 L 939.761000 304.784800 L 938.330500 302.553500 L 936.797300 300.397200 L 935.164700 298.319800 L 933.436200 296.324400 L 931.615200 294.414400 L 929.705300 292.593500 L 927.709900 290.865000 L 925.632300 289.232400 L 923.476200 287.699100 L 923.182500 287.510800 L 951.834400 204.295700 Z M 219.070400 213.076300 L 214.626200 213.414300 L 210.246500 213.970800 L 205.937000 214.740400 L 201.703100 215.717600 L 197.550300 216.896800 L 193.484100 218.272700 L 189.510100 219.839600 L 185.633600 221.592100 L 181.860300 223.524700 L 178.195500 225.631900 L 174.644900 227.908200 L 171.213800 230.348000 L 167.907900 232.946000 L 164.732500 235.696500 L 161.693300 238.594200 L 158.795700 241.633400 L 156.045100 244.808800 L 153.447200 248.114700 L 151.007300 251.545700 L 148.731000 255.096400 L 146.623800 258.761100 L 144.691200 262.534500 L 142.938700 266.410800 L 141.371800 270.385000 L 139.996000 274.451200 L 138.816700 278.604000 L 137.839400 282.837900 L 137.069900 287.147400 L 136.513400 291.527000 L 136.175500 295.971300 L 136.061600 300.474600 L 136.175500 304.978000 L 136.513400 309.422200 L 137.069900 313.801900 L 137.839400 318.111400 L 138.816700 322.345300 L 139.996000 326.498100 L 141.371800 330.564300 L 142.938700 334.538300 L 144.691200 338.414800 L 146.623800 342.188100 L 148.731000 345.852900 L 151.007300 349.403500 L 153.447200 352.834600 L 156.045100 356.140500 L 158.795700 359.315800 L 161.693300 362.355100 L 164.732500 365.252700 L 167.907900 368.003300 L 171.213800 370.601200 L 174.644900 373.041100 L 178.195500 375.317400 L 181.860300 377.424600 L 185.633600 379.357200 L 189.510100 381.109700 L 193.484100 382.676600 L 197.550300 384.052400 L 201.703100 385.231700 L 205.937000 386.208900 L 210.246500 386.978500 L 214.626200 387.535000 L 219.070400 387.872900 L 223.573800 387.986800 L 228.077100 387.872900 L 232.521400 387.535000 L 236.901000 386.978500 L 241.210500 386.208900 L 245.444400 385.231700 L 249.597200 384.052400 L 253.663400 382.676600 L 257.637500 381.109700 L 261.513900 379.357200 L 265.287300 377.424600 L 268.952000 375.317400 L 272.502700 373.041100 L 275.933700 370.601200 L 279.239600 368.003300 L 282.415000 365.252700 L 285.454200 362.355100 L 288.351900 359.315800 L 291.102400 356.140500 L 293.700400 352.834600 L 296.140200 349.403500 L 298.416500 345.852900 L 300.523700 342.188100 L 302.456300 338.414800 L 304.208800 334.538300 L 305.775700 330.564300 L 307.151600 326.498100 L 308.330800 322.345300 L 309.308000 318.111400 L 310.077600 313.801900 L 310.634100 309.422200 L 310.972100 304.978000 L 311.085900 300.474600 L 310.972100 295.971300 L 310.634100 291.527000 L 310.077600 287.147400 L 309.308000 282.837900 L 308.330800 278.604000 L 307.151600 274.451200 L 305.775700 270.385000 L 304.208800 266.410800 L 302.456300 262.534500 L 300.523700 258.761100 L 298.416500 255.096400 L 296.140200 251.545700 L 293.700400 248.114700 L 291.102400 244.808800 L 288.351900 241.633400 L 285.454200 238.594200 L 282.415000 235.696500 L 279.239600 232.946000 L 275.933700 230.348000 L 272.502700 227.908200 L 268.952000 225.631900 L 265.287300 223.524700 L 261.513900 221.592100 L 257.637500 219.839600 L 253.663400 218.272700 L 249.597200 216.896800 L 245.444400 215.717600 L 241.210500 214.740400 L 236.901000 213.970800 L 232.521400 213.414300 L 228.077100 213.076300 L 223.573800 212.962400 Z" transform="scale(0.500000,0.500000) translate(20.000000,10.000000)" fill="#ffffff" opacity="1.000000"></path>
        <path d="M 880.379200 21.362700 L 882.537900 22.032800 L 884.491300 23.093100 L 886.193300 24.497300 L 887.597500 26.199300 L 888.657800 28.152700 L 889.327900 30.311400 L 889.561600 32.629100 L 889.561600 101.801200 L 889.916200 101.796700 L 890.206900 101.796700 L 895.110900 101.858700 L 895.402300 101.866000 L 900.275700 102.051200 L 900.566300 102.066000 L 905.407600 102.372800 L 905.697400 102.394800 L 910.505100 102.821700 L 910.794100 102.851100 L 915.566700 103.396700 L 915.854200 103.433200 L 920.590300 104.095900 L 920.876400 104.139600 L 925.574400 104.918000 L 925.858500 104.968800 L 930.517000 105.861300 L 930.799300 105.919000 L 935.416800 106.924200 L 935.697000 106.988900 L 940.271900 108.105300 L 940.549300 108.176700 L 945.080100 109.402700 L 945.355300 109.480800 L 949.840700 110.815100 L 950.112800 110.899700 L 954.551100 112.340600 L 954.820500 112.431800 L 959.210400 113.978000 L 959.476600 114.075500 L 963.816400 115.725400 L 964.079300 115.829000 L 968.367700 117.581100 L 968.627300 117.690900 L 972.862600 119.543700 L 973.118600 119.659500 L 977.299600 121.611600 L 977.552100 121.733200 L 981.677000 123.783000 L 981.925800 123.910500 L 985.993300 126.056600 L 986.238400 126.189700 L 990.246900 128.430600 L 990.487800 128.569100 L 994.435900 130.903200 L 994.673100 131.047300 L 998.559300 133.473200 L 998.792500 133.622700 L 1002.615200 136.138900 L 1002.844000 136.293500 L 1006.601800 138.898400 L 1006.826700 139.058300 L 1010.518100 141.750600 L 1010.738600 141.915600 L 1014.362100 144.693700 L 1014.578400 144.863600 L 1018.132500 147.726000 L 1018.344400 147.900900 L 1021.827700 150.846200 L 1022.035100 151.025900 L 1025.445900 154.052400 L 1025.648900 154.236900 L 1028.985900 157.343300 L 1029.184500 157.532600 L 1032.446100 160.717400 L 1032.640000 160.911300 L 1035.824700 164.172900 L 1036.013800 164.371200 L 1039.120200 167.708100 L 1039.304800 167.911300 L 1042.331400 171.322200 L 1042.511100 171.529600 L 1045.456300 175.012800 L 1045.631200 175.224700 L 1048.493600 178.778800 L 1048.663500 178.995100 L 1051.441600 182.618600 L 1051.606600 182.839100 L 1054.298900 186.530500 L 1054.458800 186.755400 L 1057.063800 190.513300 L 1057.218400 190.742100 L 1059.734600 194.564800 L 1059.884000 194.797900 L 1062.309900 198.684000 L 1062.454100 198.921300 L 1064.788200 202.869400 L 1064.926900 203.110600 L 1067.167700 207.119200 L 1067.300600 207.364000 L 1069.446700 211.431500 L 1069.574200 211.680300 L 1071.624000 215.805200 L 1071.745700 216.057800 L 1073.697700 220.238700 L 1073.813200 220.494300 L 1075.666200 224.729700 L 1075.776200 224.989600 L 1077.528300 229.277900 L 1077.632000 229.541100 L 1079.281800 233.881000 L 1079.379200 234.146800 L 1080.925400 238.536600 L 1081.016500 238.806000 L 1082.457500 243.244400 L 1082.542200 243.516700 L 1083.876400 248.002000 L 1083.954500 248.276900 L 1085.180600 252.807800 L 1085.252000 253.085400 L 1086.368400 257.660300 L 1086.433100 257.940400 L 1087.438300 262.557800 L 1087.496000 262.840200 L 1088.388500 267.498700 L 1088.439300 267.782800 L 1089.217700 272.480800 L 1089.261400 272.766900 L 1089.924100 277.503000 L 1089.960700 277.790700 L 1090.506200 282.563400 L 1090.535500 282.852000 L 1090.962500 287.659700 L 1090.984500 287.949700 L 1091.291300 292.791000 L 1091.306100 293.082100 L 1091.491100 297.955500 L 1091.498400 298.245900 L 1091.560600 303.149900 L 1091.560600 303.441600 L 1091.498400 308.345500 L 1091.491100 308.635900 L 1091.306100 313.509300 L 1091.291300 313.800400 L 1090.984500 318.641700 L 1090.962500 318.931700 L 1090.535500 323.739500 L 1090.506200 324.028100 L 1089.960700 328.800700 L 1089.924100 329.088400 L 1089.261400 333.824500 L 1089.217700 334.110600 L 1088.439300 338.808600 L 1088.388500 339.092700 L 1087.496000 343.751200 L 1087.438300 344.033600 L 1086.433100 348.651000 L 1086.368400 348.931100 L 1085.252000 353.506000 L 1085.180600 353.783600 L 1083.954500 358.314500 L 1083.876400 358.589400 L 1082.542200 363.074700 L 1082.457500 363.347000 L 1081.016500 367.785400 L 1080.925400 368.054800 L 1079.379200 372.444600 L 1079.281800 372.710400 L 1077.632000 377.050300 L 1077.528300 377.313500 L 1075.776200 381.601800 L 1075.666200 381.861700 L 1073.813200 386.097100 L 1073.697700 386.352700 L 1071.745700 390.533600 L 1071.624000 390.786100 L 1069.574200 394.911100 L 1069.446700 395.160100 L 1067.300600 399.227500 L 1067.167700 399.472200 L 1064.926900 403.480800 L 1064.788200 403.722000 L 1062.454100 407.670100 L 1062.309900 407.907400 L 1059.884000 411.793500 L 1059.734700 412.026400 L 1057.218500 415.849200 L 1057.063700 416.078300 L 1054.458700 419.836100 L 1054.298900 420.060900 L 1051.606600 423.752300 L 1051.441600 423.972800 L 1048.663500 427.596300 L 1048.493600 427.812600 L 1045.631200 431.366700 L 1045.456300 431.578600 L 1042.511100 435.061800 L 1042.331400 435.269200 L 1039.304800 438.680100 L 1039.120200 438.883300 L 1036.013800 442.220200 L 1035.824700 442.418500 L 1032.640000 445.680100 L 1032.446100 445.874000 L 1029.184500 449.058800 L 1028.985900 449.248100 L 1025.648900 452.354500 L 1025.446100 452.538900 L 1022.035300 455.565500 L 1021.827500 455.745400 L 1018.344200 458.690600 L 1018.132500 458.865400 L 1014.578400 461.727800 L 1014.362100 461.897700 L 1010.738600 464.675800 L 1010.518100 464.840800 L 1006.826700 467.533100 L 1006.601800 467.693000 L 1002.844000 470.297900 L 1002.615200 470.452500 L 998.792500 472.968700 L 998.559300 473.118200 L 994.673100 475.544100 L 994.435900 475.688200 L 990.487800 478.022300 L 990.246900 478.160800 L 986.238400 480.401700 L 985.993300 480.534800 L 981.925800 482.680900 L 981.677000 482.808400 L 977.552100 484.858200 L 977.299600 484.979800 L 973.118600 486.931900 L 972.862600 487.047700 L 968.627300 488.900500 L 968.367700 489.010300 L 964.079300 490.762400 L 963.816400 490.866000 L 959.476600 492.515900 L 959.210400 492.613400 L 954.820500 494.159600 L 954.551100 494.250800 L 950.112800 495.691700 L 949.840700 495.776300 L 945.355300 497.110600 L 945.080400 497.188700 L 940.549600 498.414800 L 940.271600 498.486300 L 935.696700 499.602600 L 935.416800 499.667200 L 930.799300 500.672400 L 930.517300 500.730100 L 925.858800 501.622700 L 925.574200 501.673500 L 920.876200 502.451800 L 920.590300 502.495500 L 915.854200 503.158200 L 915.566700 503.194700 L 910.794100 503.740300 L 910.505100 503.769700 L 905.697400 504.196600 L 905.407600 504.218600 L 900.566300 504.525400 L 900.275700 504.540200 L 895.402300 504.725400 L 895.111200 504.732700 L 890.207200 504.794800 L 889.915900 504.794800 L 885.011900 504.732700 L 884.720800 504.725400 L 879.847400 504.540200 L 879.556800 504.525400 L 874.715500 504.218600 L 874.425700 504.196600 L 869.618000 503.769700 L 869.329000 503.740300 L 868.906400 503.692000 L 868.537900 503.892000 L 866.379200 504.562100 L 864.061600 504.795800 L 68.061600 504.795800 L 66.907700 504.737700 L 66.101500 504.656400 L 63.845500 504.197300 L 63.094700 503.964200 L 61.019400 503.088900 L 60.339800 502.720100 L 58.505100 501.482100 L 57.913300 500.993700 L 56.363100 499.443400 L 55.874600 498.851400 L 54.637700 497.018500 L 54.268900 496.339100 L 53.393300 494.263500 L 53.160100 493.512600 L 52.700400 491.253000 L 52.619300 490.446900 L 52.561600 489.295800 L 52.561600 38.629100 L 52.619300 37.477900 L 52.700400 36.671800 L 53.160200 34.411800 L 53.393400 33.661000 L 54.268600 31.586400 L 54.637400 30.906900 L 55.874600 29.073400 L 56.363100 28.481400 L 57.913300 26.931100 L 58.505100 26.442700 L 60.339800 25.204700 L 61.019400 24.835900 L 63.094700 23.960600 L 63.845500 23.727500 L 66.101500 23.268400 L 66.907700 23.187100 L 68.061600 23.129100 L 204.061600 23.129100 L 205.215500 23.187100 L 206.021600 23.268400 L 208.277100 23.727400 L 209.028000 23.960500 L 211.104900 24.836500 L 211.784300 25.205300 L 213.616400 26.441500 L 214.208400 26.929900 L 215.760700 28.482200 L 216.249100 29.074200 L 217.485600 30.906900 L 217.854400 31.586400 L 218.730000 33.662300 L 218.963100 34.413100 L 219.422200 36.669000 L 219.503500 37.475100 L 219.561600 38.629100 L 219.561600 101.851800 L 223.916200 101.796700 L 224.206900 101.796700 L 229.110900 101.858700 L 229.402300 101.866000 L 234.275700 102.051200 L 234.566300 102.066000 L 239.407600 102.372800 L 239.697400 102.394800 L 244.505100 102.821700 L 244.794100 102.851100 L 249.566700 103.396700 L 249.854200 103.433200 L 254.590300 104.095900 L 254.876400 104.139600 L 259.574400 104.918000 L 259.858500 104.968800 L 264.517000 105.861300 L 264.799400 105.919000 L 269.416800 106.924200 L 269.696900 106.988900 L 274.271800 108.105300 L 274.549200 108.176700 L 279.080100 109.402700 L 279.355300 109.480800 L 283.840700 110.815100 L 284.112800 110.899700 L 288.551100 112.340600 L 288.820500 112.431800 L 293.210400 113.978000 L 293.476600 114.075500 L 297.816400 115.725400 L 298.079300 115.829000 L 302.367700 117.581100 L 302.627300 117.690900 L 306.862600 119.543700 L 307.118700 119.659500 L 311.299600 121.611600 L 311.551900 121.733200 L 315.676900 123.783000 L 315.925800 123.910500 L 319.993300 126.056600 L 320.238400 126.189700 L 324.246900 128.430600 L 324.487800 128.569100 L 328.435900 130.903200 L 328.673100 131.047300 L 332.559300 133.473200 L 332.792500 133.622700 L 336.615200 136.138900 L 336.844000 136.293500 L 340.601800 138.898400 L 340.826700 139.058300 L 344.518100 141.750600 L 344.738600 141.915600 L 348.362100 144.693700 L 348.578400 144.863600 L 352.132500 147.726000 L 352.344500 147.901000 L 355.827700 150.846300 L 356.034900 151.025800 L 359.445800 154.052300 L 359.648900 154.236900 L 362.985900 157.343300 L 363.184500 157.532600 L 366.446100 160.717400 L 366.640000 160.911300 L 369.824700 164.172900 L 370.013800 164.371200 L 373.120200 167.708100 L 373.304800 167.911300 L 376.331400 171.322200 L 376.511100 171.529600 L 379.456300 175.012800 L 379.631200 175.224700 L 382.493600 178.778800 L 382.663500 178.995100 L 385.441600 182.618600 L 385.606600 182.839100 L 388.298900 186.530500 L 388.458800 186.755400 L 391.063800 190.513300 L 391.218500 190.742300 L 393.734600 194.565000 L 393.883900 194.797900 L 396.309800 198.684000 L 396.453900 198.921100 L 398.788100 202.869200 L 398.926900 203.110600 L 401.167700 207.119200 L 401.300600 207.364000 L 403.446700 211.431500 L 403.574200 211.680300 L 405.624000 215.805200 L 405.745600 216.057600 L 407.697700 220.238500 L 407.813500 220.494700 L 409.666300 224.730100 L 409.776100 224.989600 L 411.528200 229.277900 L 411.631900 229.540800 L 413.281800 233.880700 L 413.379200 234.146800 L 414.925400 238.536600 L 415.016500 238.806000 L 416.457500 243.244400 L 416.542200 243.516700 L 417.876400 248.002000 L 417.954500 248.276900 L 419.180600 252.807800 L 419.252000 253.085400 L 420.368400 257.660300 L 420.433100 257.940400 L 421.438300 262.557800 L 421.496000 262.840200 L 422.388500 267.498700 L 422.439300 267.782800 L 423.217700 272.480800 L 423.261400 272.766900 L 423.924100 277.503000 L 423.960700 277.790700 L 424.506200 282.563400 L 424.535500 282.852000 L 424.962500 287.659700 L 424.984500 287.949700 L 425.291300 292.791000 L 425.306100 293.081900 L 425.491200 297.955300 L 425.498500 298.246100 L 425.560600 303.150100 L 425.560600 303.441400 L 425.498500 308.345300 L 425.491200 308.636100 L 425.306100 313.509500 L 425.291300 313.800400 L 424.984500 318.641700 L 424.962500 318.931700 L 424.535500 323.739500 L 424.506200 324.028100 L 423.960700 328.800700 L 423.924100 329.088400 L 423.261400 333.824500 L 423.217700 334.110600 L 422.439300 338.808600 L 422.388500 339.092700 L 421.496000 343.751200 L 421.438300 344.033600 L 420.433100 348.651000 L 420.368400 348.931100 L 419.252000 353.506000 L 419.180600 353.783600 L 417.954500 358.314500 L 417.876400 358.589400 L 416.542200 363.074700 L 416.457500 363.347000 L 415.016500 367.785400 L 414.925400 368.054800 L 413.379200 372.444600 L 413.281800 372.710700 L 411.631900 377.050600 L 411.528200 377.313500 L 409.776100 381.601800 L 409.683700 381.820100 L 444.666000 381.820100 L 444.666000 34.629100 L 444.899600 32.311400 L 445.569700 30.152700 L 446.630000 28.199300 L 448.034200 26.497300 L 449.736200 25.093100 L 451.689600 24.032800 L 453.144700 23.581100 L 453.736100 23.093200 L 455.689500 22.032900 L 457.848200 21.362800 L 460.165900 21.129200 L 684.879700 21.129200 L 687.197300 21.362800 L 689.356000 22.032900 L 691.309400 23.093200 L 693.011400 24.497400 L 694.415600 26.199400 L 695.475900 28.152800 L 696.146000 30.311500 L 696.379700 32.629200 L 696.379700 132.604800 L 696.146000 134.922400 L 695.475900 137.081100 L 694.415600 139.034500 L 693.011400 140.736500 L 691.309400 142.140700 L 689.356000 143.201000 L 687.197300 143.871100 L 684.879700 144.104800 L 584.022800 144.104800 L 584.022800 196.795800 L 684.879700 196.795800 L 687.197300 197.029400 L 689.356000 197.699500 L 691.309400 198.759800 L 693.011400 200.164000 L 694.415600 201.866000 L 695.475900 203.819400 L 696.146000 205.978100 L 696.379700 208.295800 L 696.379700 308.271400 L 696.146000 310.589000 L 695.475900 312.747700 L 694.415600 314.701100 L 693.011400 316.403100 L 691.309400 317.807300 L 689.356000 318.867600 L 687.197300 319.537700 L 684.879700 319.771400 L 584.022800 319.771400 L 584.022800 381.820100 L 722.561600 381.820100 L 722.561600 32.629100 L 722.795200 30.311400 L 723.465300 28.152700 L 724.525600 26.199300 L 725.929800 24.497300 L 727.631800 23.093100 L 729.585200 22.032800 L 731.743900 21.362700 L 734.061600 21.129100 L 878.061600 21.129100 Z M 734.061600 32.629100 L 734.061600 393.320100 L 572.522800 393.320100 L 572.522800 308.271400 L 684.879700 308.271400 L 684.879700 208.295800 L 572.522800 208.295800 L 572.522800 132.604800 L 684.879700 132.604800 L 684.879700 32.629200 L 460.165900 32.629200 L 460.165900 34.629100 L 456.166000 34.629100 L 456.166000 393.320100 L 391.415000 393.320100 L 393.275700 389.793600 L 395.325500 385.668600 L 397.277600 381.487700 L 399.130400 377.252300 L 400.882500 372.964000 L 402.532400 368.624100 L 404.078600 364.234300 L 405.519600 359.795900 L 406.853800 355.310600 L 408.079900 350.779700 L 409.196300 346.204800 L 410.201500 341.587400 L 411.094000 336.928900 L 411.872400 332.230900 L 412.535100 327.494800 L 413.080600 322.722200 L 413.507600 317.914400 L 413.814400 313.073100 L 413.999500 308.199700 L 414.061600 303.295800 L 413.999500 298.391800 L 413.814400 293.518400 L 413.507600 288.677100 L 413.080600 283.869400 L 412.535100 279.096700 L 411.872400 274.360600 L 411.094000 269.662600 L 410.201500 265.004100 L 409.196300 260.386700 L 408.079900 255.811800 L 406.853800 251.280900 L 405.519600 246.795600 L 404.078600 242.357200 L 402.532400 237.967400 L 400.882500 233.627500 L 399.130400 229.339200 L 397.277600 225.103800 L 395.325500 220.922900 L 393.275700 216.798000 L 391.129600 212.730500 L 388.888800 208.721900 L 386.554600 204.773800 L 384.128700 200.887700 L 381.612600 197.065000 L 379.007600 193.307100 L 376.315300 189.615700 L 373.537200 185.992200 L 370.674800 182.438100 L 367.729600 178.954900 L 364.703000 175.544000 L 361.596600 172.207100 L 358.411900 168.945500 L 355.150300 165.760700 L 351.813300 162.654300 L 348.402400 159.627800 L 344.919200 156.682500 L 341.365100 153.820100 L 337.741600 151.042000 L 334.050200 148.349700 L 330.292400 145.744800 L 326.469700 143.228600 L 322.583500 140.802700 L 318.635400 138.468600 L 314.626900 136.227700 L 310.559400 134.081600 L 306.434400 132.031800 L 302.253500 130.079700 L 298.018200 128.226900 L 293.729800 126.474800 L 289.390000 124.824900 L 285.000100 123.278700 L 280.561800 121.837800 L 276.076400 120.503500 L 271.545500 119.277500 L 266.970600 118.161100 L 262.353200 117.155900 L 257.694700 116.263400 L 252.996700 115.485000 L 248.260600 114.822300 L 243.488000 114.276700 L 238.680300 113.849800 L 233.839000 113.543000 L 228.965600 113.357800 L 224.061600 113.295800 L 219.157600 113.357800 L 214.284200 113.543000 L 209.442900 113.849800 L 208.061600 113.972500 L 208.061600 38.629100 L 207.980300 37.823000 L 207.747200 37.072200 L 207.378400 36.392700 L 206.890000 35.800700 L 206.298000 35.312300 L 205.618600 34.943500 L 204.867700 34.710400 L 204.061600 34.629100 L 68.061600 34.629100 L 67.255400 34.710400 L 66.504600 34.943500 L 65.825000 35.312300 L 65.233200 35.800700 L 64.744700 36.392700 L 64.375900 37.072200 L 64.142700 37.823000 L 64.061600 38.629100 L 64.061600 489.295800 L 64.142700 490.101900 L 64.375900 490.852800 L 64.744700 491.532200 L 65.233200 492.124200 L 65.825000 492.612600 L 66.504600 492.981400 L 67.255400 493.214500 L 68.061600 493.295800 L 864.061600 493.295800 L 864.061600 491.517200 L 865.862600 491.769200 L 870.635200 492.314800 L 875.442900 492.741700 L 880.284200 493.048500 L 885.157600 493.233700 L 890.061600 493.295800 L 894.965600 493.233700 L 899.839000 493.048500 L 904.680300 492.741700 L 909.488000 492.314800 L 914.260600 491.769200 L 918.996700 491.106500 L 923.694700 490.328200 L 928.353200 489.435600 L 932.970700 488.430400 L 937.545600 487.314100 L 942.076400 486.088000 L 946.561800 484.753700 L 951.000100 483.312800 L 955.390000 481.766600 L 959.729800 480.116700 L 964.018200 478.364600 L 968.253500 476.511800 L 972.434500 474.559700 L 976.559400 472.509900 L 980.626900 470.363800 L 984.635400 468.122900 L 988.583500 465.788800 L 992.469700 463.362900 L 996.292400 460.846700 L 1000.050200 458.241800 L 1003.741600 455.549500 L 1007.365100 452.771400 L 1010.919200 449.909000 L 1014.402500 446.963800 L 1017.813300 443.937200 L 1021.150300 440.830800 L 1024.411900 437.646000 L 1027.596600 434.384400 L 1030.703000 431.047500 L 1033.729600 427.636600 L 1036.674800 424.153400 L 1039.537200 420.599300 L 1042.315300 416.975800 L 1045.007600 413.284400 L 1047.612600 409.526600 L 1050.128800 405.703800 L 1052.554700 401.817700 L 1054.888800 397.869600 L 1057.129600 393.861000 L 1059.275700 389.793600 L 1061.325500 385.668600 L 1063.277500 381.487700 L 1065.130500 377.252300 L 1066.882600 372.964000 L 1068.532400 368.624100 L 1070.078600 364.234300 L 1071.519600 359.795900 L 1072.853800 355.310600 L 1074.079900 350.779700 L 1075.196300 346.204800 L 1076.201500 341.587400 L 1077.094000 336.928900 L 1077.872400 332.230900 L 1078.535100 327.494800 L 1079.080600 322.722200 L 1079.507600 317.914400 L 1079.814400 313.073100 L 1079.999400 308.199700 L 1080.061600 303.295800 L 1079.999400 298.391800 L 1079.814400 293.518400 L 1079.507600 288.677100 L 1079.080600 283.869400 L 1078.535100 279.096700 L 1077.872400 274.360600 L 1077.094000 269.662600 L 1076.201500 265.004100 L 1075.196300 260.386700 L 1074.079900 255.811800 L 1072.853800 251.280900 L 1071.519600 246.795600 L 1070.078600 242.357200 L 1068.532400 237.967400 L 1066.882600 233.627500 L 1065.130500 229.339200 L 1063.277500 225.103800 L 1061.325500 220.922900 L 1059.275700 216.798000 L 1057.129600 212.730500 L 1054.888800 208.721900 L 1052.554700 204.773800 L 1050.128800 200.887700 L 1047.612600 197.065000 L 1045.007600 193.307100 L 1042.315300 189.615700 L 1039.537200 185.992200 L 1036.674800 182.438100 L 1033.729600 178.954900 L 1030.703000 175.544000 L 1027.596600 172.207100 L 1024.411900 168.945500 L 1021.150300 165.760700 L 1017.813300 162.654300 L 1014.402500 159.627800 L 1010.919200 156.682500 L 1007.365100 153.820100 L 1003.741600 151.042000 L 1000.050200 148.349700 L 996.292400 145.744800 L 992.469700 143.228600 L 988.583500 140.802700 L 984.635400 138.468600 L 980.626900 136.227700 L 976.559400 134.081600 L 972.434500 132.031800 L 968.253500 130.079700 L 964.018200 128.226900 L 959.729800 126.474800 L 955.390000 124.824900 L 951.000100 123.278700 L 946.561800 121.837800 L 942.076400 120.503500 L 937.545600 119.277500 L 932.970700 118.161100 L 928.353200 117.155900 L 923.694700 116.263400 L 918.996700 115.485000 L 914.260600 114.822300 L 909.488000 114.276700 L 904.680300 113.849800 L 899.839000 113.543000 L 894.965600 113.357800 L 890.061600 113.295800 L 885.157600 113.357800 L 880.284200 113.543000 L 878.061600 113.683800 L 878.061600 32.629100 Z M 923.182500 287.510800 L 923.476200 287.699100 L 925.632300 289.232400 L 927.709900 290.865000 L 929.705300 292.593500 L 931.615200 294.414400 L 933.436200 296.324400 L 935.164700 298.319800 L 936.797300 300.397200 L 938.330500 302.553500 L 939.761000 304.784800 L 941.085200 307.087800 L 942.299700 309.459000 L 943.401000 311.895100 L 944.385700 314.392400 L 945.250300 316.947700 L 945.991300 319.557400 L 946.605400 322.218100 L 947.089100 324.926200 L 947.438800 327.678500 L 947.651200 330.471400 L 947.722700 333.301400 L 947.651200 336.131400 L 947.438800 338.924200 L 947.089100 341.676500 L 946.605400 344.384700 L 945.991300 347.045300 L 945.250300 349.654900 L 944.385700 352.210300 L 943.401000 354.707700 L 942.299700 357.143600 L 941.085200 359.515000 L 939.761000 361.818000 L 938.330500 364.049300 L 936.797300 366.205400 L 935.164700 368.282900 L 933.436200 370.278400 L 931.615200 372.188300 L 929.705300 374.009200 L 927.709900 375.737700 L 925.632300 377.370300 L 923.476200 378.903600 L 921.244900 380.334000 L 918.941900 381.658200 L 916.570700 382.872700 L 914.134600 383.974000 L 911.637200 384.958700 L 909.082000 385.823300 L 906.472300 386.564400 L 903.811600 387.178500 L 901.103400 387.662100 L 898.351200 388.011800 L 895.558300 388.224200 L 892.728300 388.295800 L 889.898300 388.224200 L 887.105400 388.011800 L 884.353200 387.662100 L 881.645000 387.178500 L 878.984300 386.564400 L 876.374700 385.823300 L 873.819400 384.958700 L 871.322000 383.974000 L 868.886000 382.872700 L 866.514700 381.658200 L 864.211700 380.334000 L 861.980400 378.903600 L 859.824300 377.370300 L 857.746800 375.737700 L 855.751300 374.009200 L 853.841400 372.188300 L 852.020400 370.278400 L 850.291900 368.282900 L 848.659300 366.205400 L 847.126100 364.049300 L 845.695600 361.818000 L 844.371400 359.515000 L 843.156900 357.143600 L 842.055600 354.707700 L 841.070900 352.210300 L 840.206300 349.654900 L 839.465300 347.045300 L 838.851200 344.384700 L 838.367600 341.676500 L 838.017800 338.924200 L 837.805400 336.131400 L 837.733800 333.301400 L 837.805400 330.471400 L 838.017800 327.678500 L 838.367600 324.926200 L 838.851200 322.218100 L 839.465300 319.557400 L 840.206300 316.947700 L 841.070900 314.392400 L 842.055600 311.895100 L 843.156900 309.459000 L 844.371400 307.087800 L 845.695600 304.784800 L 847.126100 302.553500 L 848.659300 300.397200 L 850.291900 298.319800 L 852.020400 296.324400 L 853.841400 294.414400 L 855.751300 292.593500 L 857.746800 290.865000 L 859.824300 289.232400 L 861.980400 287.699100 L 862.274000 287.510900 L 833.622100 204.295700 L 951.834400 204.295700 Z M 228.077100 213.076300 L 232.521400 213.414300 L 236.901000 213.970800 L 241.210500 214.740400 L 245.444400 215.717600 L 249.597200 216.896800 L 253.663400 218.272700 L 257.637500 219.839600 L 261.513900 221.592100 L 265.287300 223.524700 L 268.952000 225.631900 L 272.502700 227.908200 L 275.933700 230.348000 L 279.239600 232.946000 L 282.415000 235.696500 L 285.454200 238.594200 L 288.351900 241.633400 L 291.102400 244.808800 L 293.700400 248.114700 L 296.140200 251.545700 L 298.416500 255.096400 L 300.523700 258.761100 L 302.456300 262.534500 L 304.208800 266.410800 L 305.775700 270.385000 L 307.151600 274.451200 L 308.330800 278.604000 L 309.308000 282.837900 L 310.077600 287.147400 L 310.634100 291.527000 L 310.972100 295.971300 L 311.085900 300.474600 L 310.972100 304.978000 L 310.634100 309.422200 L 310.077600 313.801900 L 309.308000 318.111400 L 308.330800 322.345300 L 307.151600 326.498100 L 305.775700 330.564300 L 304.208800 334.538300 L 302.456300 338.414800 L 300.523700 342.188100 L 298.416500 345.852900 L 296.140200 349.403500 L 293.700400 352.834600 L 291.102400 356.140500 L 288.351900 359.315800 L 285.454200 362.355100 L 282.415000 365.252700 L 279.239600 368.003300 L 275.933700 370.601200 L 272.502700 373.041100 L 268.952000 375.317400 L 265.287300 377.424600 L 261.513900 379.357200 L 257.637500 381.109700 L 253.663400 382.676600 L 249.597200 384.052400 L 245.444400 385.231700 L 241.210500 386.208900 L 236.901000 386.978500 L 232.521400 387.535000 L 228.077100 387.872900 L 223.573800 387.986800 L 219.070400 387.872900 L 214.626200 387.535000 L 210.246500 386.978500 L 205.937000 386.208900 L 201.703100 385.231700 L 197.550300 384.052400 L 193.484100 382.676600 L 189.510100 381.109700 L 185.633600 379.357200 L 181.860300 377.424600 L 178.195500 375.317400 L 174.644900 373.041100 L 171.213800 370.601200 L 167.907900 368.003300 L 164.732500 365.252700 L 161.693300 362.355100 L 158.795700 359.315800 L 156.045100 356.140500 L 153.447200 352.834600 L 151.007300 349.403500 L 148.731000 345.852900 L 146.623800 342.188100 L 144.691200 338.414800 L 142.938700 334.538300 L 141.371800 330.564300 L 139.996000 326.498100 L 138.816700 322.345300 L 137.839400 318.111400 L 137.069900 313.801900 L 136.513400 309.422200 L 136.175500 304.978000 L 136.061600 300.474600 L 136.175500 295.971300 L 136.513400 291.527000 L 137.069900 287.147400 L 137.839400 282.837900 L 138.816700 278.604000 L 139.996000 274.451200 L 141.371800 270.385000 L 142.938700 266.410800 L 144.691200 262.534500 L 146.623800 258.761100 L 148.731000 255.096400 L 151.007300 251.545700 L 153.447200 248.114700 L 156.045100 244.808800 L 158.795700 241.633400 L 161.693300 238.594200 L 164.732500 235.696500 L 167.907900 232.946000 L 171.213800 230.348000 L 174.644900 227.908200 L 178.195500 225.631900 L 181.860300 223.524700 L 185.633600 221.592100 L 189.510100 219.839600 L 193.484100 218.272700 L 197.550300 216.896800 L 201.703100 215.717600 L 205.937000 214.740400 L 210.246500 213.970800 L 214.626200 213.414300 L 219.070400 213.076300 L 223.573800 212.962400 Z M 849.744200 215.795700 L 873.147500 283.767000 L 873.626000 285.666600 L 873.774900 287.578300 L 873.607300 289.464400 L 873.136200 291.287200 L 872.374900 293.009100 L 871.336400 294.592400 L 870.033700 295.999400 L 868.642700 297.067500 L 868.645100 297.070900 L 868.553800 297.135800 L 868.480000 297.192500 L 868.420300 297.230800 L 866.712300 298.445400 L 865.069100 299.736700 L 863.487900 301.106300 L 861.975400 302.548400 L 860.532900 304.061400 L 859.165200 305.640200 L 857.871200 307.286700 L 856.658300 308.992700 L 855.526400 310.758200 L 854.480200 312.577600 L 853.519900 314.452500 L 852.650600 316.375500 L 851.873400 318.346400 L 851.190600 320.364500 L 850.606600 322.421300 L 850.121500 324.523300 L 849.739300 326.663400 L 849.462500 328.841400 L 849.294400 331.051900 L 849.237500 333.301400 L 849.294400 335.550800 L 849.462500 337.761200 L 849.739300 339.939600 L 850.121600 342.080500 L 850.606000 344.179200 L 851.191100 346.239800 L 851.872900 348.254700 L 852.651200 350.228600 L 853.519400 352.149000 L 854.480300 354.025200 L 855.526400 355.844500 L 856.658300 357.610000 L 857.872300 359.317300 L 859.163600 360.960500 L 860.532300 362.540600 L 861.976200 364.055000 L 863.487900 365.496300 L 865.069100 366.865900 L 866.712300 368.157200 L 868.419600 369.371400 L 870.185100 370.503100 L 872.004400 371.549200 L 873.879600 372.509600 L 875.801900 373.378700 L 877.773700 374.156200 L 879.791000 374.838700 L 881.849300 375.423200 L 883.950500 375.908200 L 886.090800 376.290400 L 888.267100 376.566900 L 890.478800 376.735100 L 892.728300 376.792000 L 894.977700 376.735100 L 897.189400 376.566900 L 899.365700 376.290400 L 901.506000 375.908200 L 903.607800 375.423100 L 905.666300 374.838500 L 907.681500 374.156600 L 909.654500 373.378700 L 911.577100 372.509600 L 913.452000 371.549300 L 915.271400 370.503100 L 917.036900 369.371400 L 918.743700 368.157500 L 920.388400 366.865100 L 921.968200 365.496600 L 923.480300 364.055000 L 924.924200 362.540600 L 926.292900 360.960500 L 927.584200 359.317300 L 928.798200 357.610000 L 929.930100 355.844500 L 930.976200 354.025200 L 931.937100 352.149000 L 932.805300 350.228600 L 933.583600 348.254700 L 934.265400 346.239800 L 934.850500 344.179200 L 935.335000 342.079800 L 935.717400 339.939100 L 935.993900 337.762400 L 936.162100 335.550800 L 936.219000 333.301300 L 936.162100 331.051900 L 935.993900 328.840200 L 935.717400 326.663800 L 935.335200 324.524000 L 934.849900 322.421300 L 934.265900 320.364500 L 933.583100 318.346400 L 932.805900 316.375500 L 931.936600 314.452500 L 930.976300 312.577600 L 929.930100 310.758200 L 928.798200 308.992700 L 927.585300 307.286700 L 926.291300 305.640200 L 924.923600 304.061400 L 923.481100 302.548400 L 921.968200 301.106000 L 920.388400 299.737500 L 918.743700 298.445100 L 917.036000 297.230600 L 916.975600 297.191900 L 916.901300 297.134800 L 916.811400 297.070900 L 916.813800 297.067600 L 915.422100 295.998700 L 914.119600 294.591700 L 913.081200 293.008400 L 912.320000 291.286600 L 911.849100 289.463900 L 911.681500 287.577900 L 911.830500 285.666400 L 912.308900 283.766900 L 935.712200 215.795700 Z M 219.651000 224.565300 L 215.787800 224.859100 L 211.983000 225.342500 L 208.243800 226.010300 L 204.567600 226.858800 L 200.966100 227.881400 L 197.439100 229.074900 L 193.990900 230.434500 L 190.625500 231.955900 L 187.349900 233.633600 L 184.168800 235.462700 L 181.085300 237.439500 L 178.102200 239.560700 L 175.229500 241.818300 L 172.469100 244.209400 L 169.828500 246.727000 L 167.307400 249.371300 L 164.918000 252.129700 L 162.658600 255.004900 L 160.539700 257.984500 L 158.562600 261.068500 L 156.732200 264.251800 L 155.054500 267.527400 L 153.533000 270.892800 L 152.174500 274.338400 L 150.980500 277.867300 L 149.957700 281.469100 L 149.109600 285.143200 L 148.441600 288.884400 L 147.958400 292.687200 L 147.664400 296.553300 L 147.565300 300.474600 L 147.664400 304.395900 L 147.958400 308.262200 L 148.441500 312.064500 L 149.109600 315.806000 L 149.957700 319.480100 L 150.980500 323.081900 L 152.174000 326.609300 L 153.533600 330.057400 L 155.055000 333.422800 L 156.732700 336.698400 L 158.561800 339.879500 L 160.539100 342.963700 L 162.658900 345.944700 L 164.917300 348.818500 L 167.309100 351.579700 L 169.826400 354.220100 L 172.470400 356.740900 L 175.228800 359.130300 L 178.103600 361.389400 L 181.084600 363.509200 L 184.168800 365.486500 L 187.349900 367.315600 L 190.625500 368.993300 L 193.990900 370.514700 L 197.439000 371.874300 L 200.966400 373.067800 L 204.567500 374.090400 L 208.243800 374.938900 L 211.983000 375.606700 L 215.786100 376.089900 L 219.652400 376.383900 L 223.573700 376.483000 L 227.495000 376.383900 L 231.361100 376.089900 L 235.164700 375.606600 L 238.903600 374.938900 L 242.579900 374.090400 L 246.181000 373.067800 L 249.709200 371.874000 L 253.156900 370.514700 L 256.520200 368.994100 L 259.796500 367.316100 L 262.979800 365.485700 L 266.063800 363.508600 L 269.043400 361.389700 L 271.918600 359.130300 L 274.677000 356.740900 L 277.320100 354.221000 L 279.840100 351.577800 L 282.229900 348.818900 L 284.487600 345.946100 L 286.608800 342.963000 L 288.585600 339.879500 L 290.414700 336.698400 L 292.092400 333.422800 L 293.613800 330.057400 L 294.973400 326.609200 L 296.166900 323.082200 L 297.189500 319.480700 L 298.038000 315.804500 L 298.705800 312.065300 L 299.189200 308.260500 L 299.483000 304.397300 L 299.582200 300.474600 L 299.483000 296.551800 L 299.189300 292.689000 L 298.705700 288.883600 L 298.038000 285.144700 L 297.189500 281.468500 L 296.166900 277.867000 L 294.972900 274.338500 L 293.614400 270.892800 L 292.092900 267.527400 L 290.415200 264.251800 L 288.584800 261.068500 L 286.608200 257.985200 L 284.487900 255.003600 L 282.230000 252.130400 L 279.838900 249.370000 L 277.320100 246.728200 L 274.678300 244.209400 L 271.917900 241.818300 L 269.044700 239.560400 L 266.063100 237.440100 L 262.979800 235.463500 L 259.796500 233.633100 L 256.520200 231.955100 L 253.156900 230.434500 L 249.709100 229.075100 L 246.181300 227.881400 L 242.579800 226.858800 L 238.903600 226.010300 L 235.164700 225.342600 L 231.359300 224.859000 L 227.496500 224.565300 L 223.573700 224.466100 Z" transform="scale(0.500000,0.500000) translate(20.000000,10.000000)" fill="#000000" opacity="1.000000"></path>
    </g>
</svg>