<?xml version="1.0" encoding="UTF-8" standalone="no"?>
<!-- Created with Inkscape (http://www.inkscape.org/) -->

<svg
   version="1.1"
   id="svg25"
   xml:space="preserve"
   width="844.69733"
   height="263.73468"
   viewBox="0 0 844.69733 263.73468"
   sodipodi:docname="SURFconext-logo.svg"
   inkscape:version="1.1.2 (0a00cf5339, 2022-02-04)"
   xmlns:inkscape="http://www.inkscape.org/namespaces/inkscape"
   xmlns:sodipodi="http://sodipodi.sourceforge.net/DTD/sodipodi-0.dtd"
   xmlns="http://www.w3.org/2000/svg"
   xmlns:svg="http://www.w3.org/2000/svg"><defs
     id="defs29"><clipPath
       clipPathUnits="userSpaceOnUse"
       id="clipPath39"><path
         d="M 0,197.801 H 633.523 V 0 H 0 Z"
         id="path37" /></clipPath></defs><sodipodi:namedview
     id="namedview27"
     pagecolor="#ffffff"
     bordercolor="#666666"
     borderopacity="1.0"
     inkscape:pageshadow="2"
     inkscape:pageopacity="0.0"
     inkscape:pagecheckerboard="0"
     showgrid="false"
     inkscape:zoom="2.77851"
     inkscape:cx="422.34866"
     inkscape:cy="131.72528"
     inkscape:window-width="2560"
     inkscape:window-height="1299"
     inkscape:window-x="1920"
     inkscape:window-y="32"
     inkscape:window-maximized="1"
     inkscape:current-layer="g31" /><g
     id="g31"
     inkscape:groupmode="layer"
     inkscape:label="SURFconext-logo"
     transform="matrix(1.3333333,0,0,-1.3333333,0,263.73467)"><g
       id="g33"><g
         id="g35"
         clip-path="url(#clipPath39)"><g
           id="g41"
           transform="translate(353.253,78.2912)"><path
             d="M 0,0 C 16.146,0 29.241,-13.284 29.241,-29.672 V -48.627 C 29.241,-65.013 16.146,-78.292 0,-78.292 h -43.646 c -16.147,0 -29.237,13.279 -29.237,29.665 v 11.706 C -72.883,-16.53 -89.173,0 -109.268,0 h -207.6 c -20.092,0 -36.385,16.531 -36.385,36.926 v 45.658 c 0,20.392 16.293,36.926 36.385,36.926 h 207.6 c 20.095,0 36.385,-16.534 36.385,-36.926 V 36.926 C -72.883,16.531 -56.593,0 -36.493,0 Z"
             style="fill:#00b1c4;fill-opacity:1;fill-rule:nonzero;stroke:none"
             id="path43" /></g><g
           id="g45"
           transform="translate(62.6793,127.1037)"><path
             d="m 0,0 c 0,2.77 -3.428,3.908 -7.839,5.258 l -8.822,2.7 c -6.372,1.918 -11.973,6.467 -11.973,14.424 0,9.593 8.473,16.129 19.955,16.129 8.893,0 19.393,-3.126 19.393,-8.883 0,-3.551 -1.752,-5.753 -4.973,-5.753 -1.679,0 -3.149,0.567 -4.828,1.135 -2.452,0.925 -5.461,1.99 -9.592,1.99 -3.363,0 -7.563,-1.35 -7.563,-4.049 0,-2.416 1.89,-3.553 6.022,-4.83 l 9.872,-3.057 c 6.651,-2.059 12.744,-6.109 12.744,-15.42 0,-9.946 -9.173,-16.34 -20.935,-16.34 -9.872,0 -21.425,3.126 -21.425,8.883 0,3.551 2.029,5.753 5.531,5.753 1.82,0 3.501,-0.495 5.391,-1.138 2.661,-0.922 5.81,-1.988 10.503,-1.988 C -4.548,-5.186 0,-3.34 0,0"
             style="fill:#ffffff;fill-opacity:1;fill-rule:nonzero;stroke:none"
             id="path47" /></g><g
           id="g49"
           transform="translate(122.6852,159.2204)"><path
             d="m 0,0 c 0,4.047 2.102,6.107 6.021,6.107 3.989,0 6.093,-2.06 6.093,-6.107 v -23.446 c 0,-15.418 -10.155,-25.367 -24.018,-25.367 -13.795,0 -23.947,9.949 -23.947,25.367 V 0 c 0,4.047 2.104,6.107 6.024,6.107 3.988,0 6.09,-2.06 6.09,-6.107 v -23.446 c 0,-8.315 4.972,-13.288 11.833,-13.288 6.931,0 11.904,4.973 11.904,13.288 z"
             style="fill:#ffffff;fill-opacity:1;fill-rule:nonzero;stroke:none"
             id="path51" /></g><g
           id="g53"
           transform="translate(161.1212,153.1106)"><path
             d="m 0,0 v -14.28 h 10.223 c 4.622,0 8.259,2.13 8.259,7.104 C 18.482,-2.132 14.845,0 10.223,0 Z M 11.065,-25.438 H 0 v -10.871 c 0,-4.05 -2.102,-6.11 -6.09,-6.11 -3.92,0 -6.023,2.06 -6.023,6.11 v 41.92 c 0,4.051 2.103,6.113 6.023,6.113 h 17.363 c 11.625,0 19.674,-7.746 19.674,-18.9 0,-6.82 -3.084,-12.011 -8.262,-14.781 l 5.601,-11.368 c 0.56,-1.135 0.768,-2.199 0.768,-3.268 0,-3.552 -3.988,-5.826 -7.001,-5.826 -2.238,0 -3.845,1.35 -4.967,3.906 z"
             style="fill:#ffffff;fill-opacity:1;fill-rule:nonzero;stroke:none"
             id="path55" /></g><g
           id="g57"
           transform="translate(217.2706,130.0154)"><path
             d="m 0,0 v -13.214 c 0,-4.05 -2.024,-6.11 -6.018,-6.11 -3.923,0 -6.019,2.06 -6.019,6.11 v 41.921 c 0,4.05 2.096,6.112 6.019,6.112 H 22.97 c 3.851,0 5.739,-1.992 5.739,-5.828 0,-3.906 -1.888,-5.896 -5.739,-5.896 H 0 V 11.724 h 14.357 c 3.851,0 5.738,-1.99 5.738,-5.895 C 20.095,1.99 18.208,0 14.357,0 Z"
             style="fill:#ffffff;fill-opacity:1;fill-rule:nonzero;stroke:none"
             id="path59" /></g><g
           id="g61"
           transform="translate(340.0919,122.6086)"><path
             d="m 0,0 c 3.428,0 5.713,0.942 7.642,1.739 1.428,0.58 2.642,1.015 4.142,1.015 3.428,0 5.356,-3.116 5.356,-6.667 0,-5.436 -9.713,-8.407 -16.426,-8.407 -15.711,0 -28.352,10.653 -28.352,28.192 0,17.537 12.641,28.118 28.352,28.118 6.713,0 16.426,-2.971 16.426,-8.407 0,-3.551 -1.928,-6.667 -5.356,-6.667 -1.5,0 -2.714,0.507 -4.142,1.015 C 5.713,30.728 3.428,31.67 0,31.67 -7.642,31.67 -14.927,26.017 -14.927,15.872 -14.927,5.725 -7.642,0 0,0"
             style="fill:#00b1c4;fill-opacity:1;fill-rule:nonzero;stroke:none"
             id="path63" /></g><g
           id="g65"
           transform="translate(390.6505,122.6086)"><path
             d="M 0,0 C 8.285,0 15.141,7.102 15.141,15.798 15.141,24.495 8.285,31.67 0,31.67 -8.284,31.67 -14.997,24.495 -14.997,15.798 -14.997,7.102 -8.284,0 0,0 M 0,43.99 C 15.712,43.99 27.781,31.67 27.781,15.798 27.781,0.217 15.426,-12.32 0,-12.32 c -15.711,0 -27.709,12.247 -27.709,28.118 0,15.582 12.355,28.192 27.709,28.192"
             style="fill:#00b1c4;fill-opacity:1;fill-rule:nonzero;stroke:none"
             id="path67" /></g><g
           id="g69"
           transform="translate(463.42,160.0769)"><path
             d="m 0,0 c 0,4.13 2.143,6.232 6.142,6.232 4.071,0 6.213,-2.102 6.213,-6.232 v -43.266 c 0,-4.131 -2.142,-6.233 -6.213,-6.233 -2.071,0 -4.213,1.015 -5.642,2.827 l -24.567,30.583 v -27.177 c 0,-4.131 -2.143,-6.233 -6.212,-6.233 -4,0 -6.143,2.102 -6.143,6.233 V 0 c 0,4.13 2.143,6.232 6.143,6.232 2.141,0 4.069,-0.87 6.069,-3.334 L 0,-27.322 Z"
             style="fill:#00b1c4;fill-opacity:1;fill-rule:nonzero;stroke:none"
             id="path71" /></g><g
           id="g73"
           transform="translate(523.6193,165.8015)"><path
             d="m 0,0 c 3.929,0 5.856,-2.029 5.856,-5.942 0,-3.986 -1.927,-6.016 -5.856,-6.016 h -24.066 v -9.276 h 14.997 c 3.928,0 5.856,-1.957 5.856,-5.943 0,-3.986 -1.928,-5.942 -5.856,-5.942 h -14.997 v -9.567 H 0 c 3.929,0 5.856,-2.029 5.856,-6.015 0,-3.913 -1.927,-5.943 -5.856,-5.943 h -30.279 c -4,0 -6.143,2.102 -6.143,6.233 v 42.179 c 0,4.13 2.143,6.232 6.143,6.232 z"
             style="fill:#00b1c4;fill-opacity:1;fill-rule:nonzero;stroke:none"
             id="path75" /></g><g
           id="g77"
           transform="translate(560.2531,129.7107)"><path
             d="m 0,0 c -4.928,-5.725 -9.784,-11.523 -14.783,-17.176 -1.5,-1.595 -2.714,-2.246 -4.285,-2.246 -2.857,0 -6.356,3.189 -6.356,6.015 0,1.377 0.499,2.681 1.714,4.058 L -7.855,9.132 -22.639,26.38 c -1.214,1.449 -1.786,2.899 -1.786,4.203 0,2.972 3.643,6.305 6.571,6.305 1.571,0 3,-0.724 4.499,-2.391 L 0.499,18.263 c 4.785,5.435 9.356,10.944 14.142,16.379 1.356,1.449 2.784,2.246 4.285,2.246 2.855,0 6.354,-3.189 6.354,-6.015 0,-1.377 -0.57,-2.609 -1.713,-4.059 L 8.427,9.132 23.924,-8.914 c 1.214,-1.377 1.857,-2.899 1.857,-4.203 0,-2.972 -3.642,-6.305 -6.642,-6.305 -1.571,0 -2.928,0.725 -4.428,2.391 z"
             style="fill:#00b1c4;fill-opacity:1;fill-rule:nonzero;stroke:none"
             id="path79" /></g><g
           id="g81"
           transform="translate(605.0275,116.8108)"><path
             d="m 0,0 v 37.033 h -10.213 c -3.999,0 -5.927,2.03 -5.927,6.015 0,3.913 1.928,5.943 5.927,5.943 h 32.852 c 3.928,0 5.856,-2.03 5.856,-5.943 0,-3.985 -1.928,-6.015 -5.856,-6.015 H 12.355 V 0 c 0,-4.131 -2.142,-6.233 -6.141,-6.233 C 2.143,-6.233 0,-4.131 0,0"
             style="fill:#00b1c4;fill-opacity:1;fill-rule:nonzero;stroke:none"
             id="path83" /></g></g></g></g></svg>
